<svg width="565" height="127" viewBox="0 0 565 127" fill="none" xmlns="http://www.w3.org/2000/svg">
<path d="M115 101.2C108.8 101.2 103.3 99.7 98.5 96.7C93.8 93.6 90.1 89.4 87.4 84.1C84.7 78.7 83.35 72.55 83.35 65.65C83.35 58.65 84.7 52.5 87.4 47.2C90.1 41.8 93.8 37.6 98.5 34.6C103.3 31.5 108.8 29.95 115 29.95C121.2 29.95 126.65 31.5 131.35 34.6C136.15 37.6 139.9 41.8 142.6 47.2C145.3 52.5 146.65 58.65 146.65 65.65C146.65 72.55 145.3 78.7 142.6 84.1C139.9 89.4 136.15 93.6 131.35 96.7C126.65 99.7 121.2 101.2 115 101.2ZM115 92.2C119 92.2 122.5 91.05 125.5 88.75C128.5 86.45 130.85 83.3 132.55 79.3C134.35 75.3 135.25 70.7 135.25 65.5C135.25 60.3 134.35 55.7 132.55 51.7C130.85 47.7 128.5 44.6 125.5 42.4C122.5 40.1 119 38.95 115 38.95C111.1 38.95 107.6 40.1 104.5 42.4C101.5 44.6 99.1 47.7 97.3 51.7C95.6 55.7 94.75 60.3 94.75 65.5C94.75 70.7 95.6 75.3 97.3 79.3C99.1 83.3 101.5 86.45 104.5 88.75C107.6 91.05 111.1 92.2 115 92.2ZM195.25 101.65C190.25 101.65 185.65 100.75 181.45 98.95C177.25 97.15 173.6 94.65 170.5 91.45C167.5 88.25 165.15 84.5 163.45 80.2C161.75 75.8 160.9 71 160.9 65.8C160.9 60.7 161.75 56 163.45 51.7C165.15 47.3 167.5 43.5 170.5 40.3C173.6 37.1 177.25 34.6 181.45 32.8C185.65 31 190.2 30.1 195.1 30.1C200.7 30.1 205.7 31.25 210.1 33.55C214.6 35.75 218.25 38.85 221.05 42.85L214.3 49.45L213.25 50.5L212.5 49.75C212.5 48.95 212.3 48.2 211.9 47.5C211.6 46.8 210.85 45.85 209.65 44.65C207.45 42.65 205.1 41.25 202.6 40.45C200.1 39.65 197.2 39.25 193.9 39.25C191 39.25 188.25 39.85 185.65 41.05C183.05 42.25 180.7 44 178.6 46.3C176.6 48.5 175 51.2 173.8 54.4C172.6 57.6 172 61.15 172 65.05C172 68.95 172.6 72.55 173.8 75.85C175 79.05 176.65 81.85 178.75 84.25C180.85 86.65 183.35 88.55 186.25 89.95C189.25 91.25 192.45 91.9 195.85 91.9C198.15 91.9 200.35 91.6 202.45 91C204.55 90.3 206.55 89.35 208.45 88.15C210.35 86.85 212.1 85.3 213.7 83.5L220 90.85C216.6 94.45 212.8 97.15 208.6 98.95C204.5 100.75 200.05 101.65 195.25 101.65ZM259.15 101.65C251.35 101.65 245.35 99.9 241.15 96.4C236.95 92.8 234.85 88.25 234.85 82.75C234.85 79.05 235.75 75.75 237.55 72.85C239.35 69.85 241.8 67.35 244.9 65.35C248.1 63.25 251.8 61.65 256 60.55C260.2 59.45 264.65 58.9 269.35 58.9C271.05 58.9 272.75 58.95 274.45 59.05C276.25 59.05 278.1 59.15 280 59.35C282 59.45 284.05 59.65 286.15 59.95L286.45 68.2C284.65 67.9 282.8 67.7 280.9 67.6C279.1 67.4 277.3 67.25 275.5 67.15C273.7 67.05 271.95 67 270.25 67C266.65 67 263.35 67.3 260.35 67.9C257.35 68.5 254.75 69.4 252.55 70.6C250.35 71.8 248.65 73.35 247.45 75.25C246.25 77.15 245.65 79.45 245.65 82.15C245.65 84.25 246 86.05 246.7 87.55C247.5 88.95 248.55 90.1 249.85 91C251.15 91.8 252.65 92.4 254.35 92.8C256.15 93.2 258.1 93.4 260.2 93.4C264.1 93.4 267.55 92.8 270.55 91.6C273.65 90.3 276.25 88.45 278.35 86.05C280.55 83.65 282.2 80.7 283.3 77.2C284.4 73.7 284.95 69.7 284.95 65.2C284.95 58.4 284.15 53.1 282.55 49.3C280.95 45.5 278.55 42.8 275.35 41.2C272.25 39.6 268.25 38.8 263.35 38.8C260.05 38.8 256.8 39.45 253.6 40.75C250.4 41.95 247.5 43.85 244.9 46.45L239.65 39.55C242.85 36.35 246.55 33.95 250.75 32.35C254.95 30.75 259.4 29.95 264.1 29.95C268.6 29.95 272.7 30.5 276.4 31.6C280.1 32.7 283.25 34.55 285.85 37.15C288.55 39.65 290.6 43.05 292 47.35C293.5 51.65 294.25 57.05 294.25 63.55V100H282.55V89.5C281.25 92 279.65 94.05 277.75 95.65C275.95 97.25 274 98.5 271.9 99.4C269.8 100.2 267.65 100.75 265.45 101.05C263.25 101.45 261.15 101.65 259.15 101.65ZM311.5 125.05V31.45H322.45V44.95C323.55 41.45 325.1 38.6 327.1 36.4C329.2 34.2 331.6 32.6 334.3 31.6C337.1 30.5 340.1 29.95 343.3 29.95C347.1 29.95 350.7 30.7 354.1 32.2C357.6 33.6 360.65 35.75 363.25 38.65C365.95 41.55 368.05 45.2 369.55 49.6C371.15 54 371.95 59.2 371.95 65.2C371.95 71.2 371.1 76.5 369.4 81.1C367.8 85.7 365.6 89.55 362.8 92.65C360.1 95.65 357 97.95 353.5 99.55C350.1 101.05 346.6 101.8 343 101.8C340.3 101.8 337.65 101.35 335.05 100.45C332.55 99.65 330.25 98.45 328.15 96.85C326.05 95.15 324.2 93.2 322.6 91V125.05H311.5ZM341.2 92.2C343.6 92.2 345.95 91.8 348.25 91C350.55 90.1 352.65 88.65 354.55 86.65C356.45 84.65 357.95 81.95 359.05 78.55C360.15 75.05 360.7 70.75 360.7 65.65C360.7 60.15 360 55.5 358.6 51.7C357.2 47.8 355.15 44.8 352.45 42.7C349.85 40.6 346.65 39.45 342.85 39.25C340.05 39.05 337.4 39.45 334.9 40.45C332.5 41.45 330.35 43.1 328.45 45.4C326.55 47.7 325.05 50.75 323.95 54.55C322.95 58.25 322.45 62.75 322.45 68.05C322.55 71.25 322.9 74.15 323.5 76.75C324.1 79.35 324.95 81.65 326.05 83.65C327.15 85.55 328.45 87.15 329.95 88.45C331.45 89.65 333.15 90.6 335.05 91.3C336.95 91.9 339 92.2 341.2 92.2ZM406.6 126.1C402.3 126.1 398.2 125.3 394.3 123.7C390.5 122.1 387.3 119.7 384.7 116.5L390.7 108.4L391.6 107.2L392.5 107.8C392.7 108.6 392.95 109.35 393.25 110.05C393.55 110.85 394.25 111.85 395.35 113.05C396.75 114.15 398.35 115.05 400.15 115.75C402.05 116.45 404.15 116.8 406.45 116.8C409.45 116.8 412.1 116.1 414.4 114.7C416.8 113.4 418.65 111.3 419.95 108.4C421.25 105.6 421.9 101.9 421.9 97.3V40.3H396.4V31.45H432.85V96.7C432.85 103.6 431.65 109.2 429.25 113.5C426.85 117.9 423.65 121.1 419.65 123.1C415.75 125.1 411.4 126.1 406.6 126.1ZM426.55 17.05C424.45 17.05 422.65 16.3 421.15 14.8C419.65 13.3 418.9 11.5 418.9 9.4C418.9 7.19999 419.6 5.34999 421 3.85C422.5 2.35 424.35 1.6 426.55 1.6C428.65 1.6 430.45 2.4 431.95 3.99999C433.55 5.5 434.35 7.3 434.35 9.4C434.35 11.5 433.55 13.3 431.95 14.8C430.45 16.3 428.65 17.05 426.55 17.05ZM493.3 101.5C488.3 101.5 483.75 100.75 479.65 99.25C475.55 97.65 472 95.35 469 92.35C466.1 89.35 463.85 85.65 462.25 81.25C460.65 76.75 459.85 71.65 459.85 65.95C459.85 60.15 460.65 55 462.25 50.5C463.95 46 466.2 42.25 469 39.25C471.9 36.15 475.25 33.8 479.05 32.2C482.95 30.6 487.05 29.8 491.35 29.8C495.25 29.8 498.9 30.45 502.3 31.75C505.7 33.05 508.65 35.05 511.15 37.75C513.65 40.35 515.6 43.7 517 47.8C518.5 51.9 519.25 56.75 519.25 62.35C519.25 63.15 519.2 64 519.1 64.9C519.1 65.7 519.05 66.5 518.95 67.3H470.2C470.4 71.7 471.15 75.55 472.45 78.85C473.75 82.05 475.45 84.7 477.55 86.8C479.65 88.8 482.05 90.3 484.75 91.3C487.55 92.3 490.5 92.8 493.6 92.8C496 92.8 498.25 92.55 500.35 92.05C502.45 91.45 504.4 90.6 506.2 89.5C508.1 88.3 509.8 86.85 511.3 85.15L517.3 91C515.4 93.3 513.2 95.25 510.7 96.85C508.3 98.45 505.65 99.6 502.75 100.3C499.85 101.1 496.7 101.5 493.3 101.5ZM470.65 58.9H508.3C508.3 55.7 507.85 52.85 506.95 50.35C506.15 47.75 504.95 45.55 503.35 43.75C501.85 41.85 500 40.45 497.8 39.55C495.7 38.55 493.3 38.05 490.6 38.05C488.2 38.05 485.9 38.45 483.7 39.25C481.6 40.05 479.65 41.35 477.85 43.15C476.05 44.85 474.5 47 473.2 49.6C472 52.2 471.15 55.3 470.65 58.9Z" fill="white"/>
<rect y="10" width="80" height="80" fill="white"/>
<path d="M39.55 125.8C34.75 125.8 30.4 125.4 26.5 124.6C22.7 123.9 19.4 122.8 16.6 121.3C13.9 119.9 11.8 118.1 10.3 115.9C8.9 113.7 8.2 111.1 8.2 108.1C8.2 105.3 8.8 102.8 10 100.6C11.2 98.4 12.75 96.6 14.65 95.2C16.65 93.7 18.8 92.6 21.1 91.9L25.6 94.6C23.8 95.7 22.35 96.8 21.25 97.9C20.15 99 19.35 100.25 18.85 101.65C18.35 103.15 18.1 104.9 18.1 106.9C18.1 108.6 18.6 110.1 19.6 111.4C20.6 112.8 22 113.95 23.8 114.85C25.7 115.75 27.95 116.45 30.55 116.95C33.25 117.45 36.3 117.7 39.7 117.7C44.3 117.7 48 117.2 50.8 116.2C53.7 115.3 55.85 114 57.25 112.3C58.65 110.7 59.35 108.85 59.35 106.75C59.35 104.55 58.95 102.75 58.15 101.35C57.35 99.95 55.7 98.9 53.2 98.2C50.7 97.5 46.9 97.15 41.8 97.15C38.3 97.15 35.1 97 32.2 96.7C29.3 96.4 26.7 95.9 24.4 95.2C22.1 94.5 20.15 93.65 18.55 92.65C17.05 91.55 15.9 90.25 15.1 88.75C14.3 87.25 13.9 85.5 13.9 83.5C13.9 80.9 14.6 78.4 16 76C17.5 73.6 19.5 71.3 22 69.1L27.1 73.15C26.1 74.25 25.3 75.25 24.7 76.15C24.1 76.95 23.65 77.75 23.35 78.55C23.15 79.25 23.05 80.05 23.05 80.95C23.05 82.55 23.65 83.85 24.85 84.85C26.15 85.85 28.35 86.6 31.45 87.1C34.55 87.5 38.75 87.7 44.05 87.7C49.35 87.7 53.65 88.15 56.95 89.05C60.25 89.85 62.75 91.05 64.45 92.65C66.25 94.25 67.5 96.1 68.2 98.2C68.9 100.3 69.25 102.6 69.25 105.1C69.25 107.8 68.7 110.35 67.6 112.75C66.6 115.25 64.95 117.45 62.65 119.35C60.35 121.35 57.3 122.9 53.5 124C49.7 125.2 45.05 125.8 39.55 125.8ZM36.4 76.75C31.5 76.75 27.25 75.7 23.65 73.6C20.05 71.4 17.25 68.5 15.25 64.9C13.35 61.2 12.4 57.15 12.4 52.75C12.4 48.35 13.35 44.35 15.25 40.75C17.25 37.15 20.05 34.3 23.65 32.2C27.25 30 31.5 28.9 36.4 28.9C41.4 28.9 45.65 30 49.15 32.2C52.75 34.3 55.5 37.15 57.4 40.75C59.4 44.35 60.4 48.35 60.4 52.75C60.4 57.15 59.4 61.2 57.4 64.9C55.5 68.5 52.75 71.4 49.15 73.6C45.65 75.7 41.4 76.75 36.4 76.75ZM36.4 67.75C39.3 67.75 41.85 67.1 44.05 65.8C46.35 64.4 48.15 62.55 49.45 60.25C50.75 57.95 51.4 55.45 51.4 52.75C51.4 49.95 50.75 47.45 49.45 45.25C48.15 42.95 46.35 41.15 44.05 39.85C41.85 38.45 39.3 37.75 36.4 37.75C33.5 37.75 30.9 38.45 28.6 39.85C26.4 41.15 24.65 42.95 23.35 45.25C22.05 47.45 21.4 49.95 21.4 52.75C21.4 55.45 22.05 57.95 23.35 60.25C24.65 62.55 26.4 64.4 28.6 65.8C30.9 67.1 33.5 67.75 36.4 67.75ZM56.35 42.55L52.15 37.6C55.05 34.7 58.05 32.6 61.15 31.3C64.35 29.9 68.1 29.35 72.4 29.65L73.75 38.5C70.45 38.2 67.35 38.3 64.45 38.8C61.55 39.3 58.85 40.55 56.35 42.55Z" fill="white"/>
<mask id="mask0_11_10" style="mask-type:alpha" maskUnits="userSpaceOnUse" x="0" y="10" width="80" height="80">
<rect y="10" width="80" height="80" fill="white"/>
</mask>
<g mask="url(#mask0_11_10)">
<path d="M39.55 125.8C34.75 125.8 30.4 125.4 26.5 124.6C22.7 123.9 19.4 122.8 16.6 121.3C13.9 119.9 11.8 118.1 10.3 115.9C8.9 113.7 8.2 111.1 8.2 108.1C8.2 105.3 8.8 102.8 10 100.6C11.2 98.4 12.75 96.6 14.65 95.2C16.65 93.7 18.8 92.6 21.1 91.9L25.6 94.6C23.8 95.7 22.35 96.8 21.25 97.9C20.15 99 19.35 100.25 18.85 101.65C18.35 103.15 18.1 104.9 18.1 106.9C18.1 108.6 18.6 110.1 19.6 111.4C20.6 112.8 22 113.95 23.8 114.85C25.7 115.75 27.95 116.45 30.55 116.95C33.25 117.45 36.3 117.7 39.7 117.7C44.3 117.7 48 117.2 50.8 116.2C53.7 115.3 55.85 114 57.25 112.3C58.65 110.7 59.35 108.85 59.35 106.75C59.35 104.55 58.95 102.75 58.15 101.35C57.35 99.95 55.7 98.9 53.2 98.2C50.7 97.5 46.9 97.15 41.8 97.15C38.3 97.15 35.1 97 32.2 96.7C29.3 96.4 26.7 95.9 24.4 95.2C22.1 94.5 20.15 93.65 18.55 92.65C17.05 91.55 15.9 90.25 15.1 88.75C14.3 87.25 13.9 85.5 13.9 83.5C13.9 80.9 14.6 78.4 16 76C17.5 73.6 19.5 71.3 22 69.1L27.1 73.15C26.1 74.25 25.3 75.25 24.7 76.15C24.1 76.95 23.65 77.75 23.35 78.55C23.15 79.25 23.05 80.05 23.05 80.95C23.05 82.55 23.65 83.85 24.85 84.85C26.15 85.85 28.35 86.6 31.45 87.1C34.55 87.5 38.75 87.7 44.05 87.7C49.35 87.7 53.65 88.15 56.95 89.05C60.25 89.85 62.75 91.05 64.45 92.65C66.25 94.25 67.5 96.1 68.2 98.2C68.9 100.3 69.25 102.6 69.25 105.1C69.25 107.8 68.7 110.35 67.6 112.75C66.6 115.25 64.95 117.45 62.65 119.35C60.35 121.35 57.3 122.9 53.5 124C49.7 125.2 45.05 125.8 39.55 125.8ZM36.4 76.75C31.5 76.75 27.25 75.7 23.65 73.6C20.05 71.4 17.25 68.5 15.25 64.9C13.35 61.2 12.4 57.15 12.4 52.75C12.4 48.35 13.35 44.35 15.25 40.75C17.25 37.15 20.05 34.3 23.65 32.2C27.25 30 31.5 28.9 36.4 28.9C41.4 28.9 45.65 30 49.15 32.2C52.75 34.3 55.5 37.15 57.4 40.75C59.4 44.35 60.4 48.35 60.4 52.75C60.4 57.15 59.4 61.2 57.4 64.9C55.5 68.5 52.75 71.4 49.15 73.6C45.65 75.7 41.4 76.75 36.4 76.75ZM36.4 67.75C39.3 67.75 41.85 67.1 44.05 65.8C46.35 64.4 48.15 62.55 49.45 60.25C50.75 57.95 51.4 55.45 51.4 52.75C51.4 49.95 50.75 47.45 49.45 45.25C48.15 42.95 46.35 41.15 44.05 39.85C41.85 38.45 39.3 37.75 36.4 37.75C33.5 37.75 30.9 38.45 28.6 39.85C26.4 41.15 24.65 42.95 23.35 45.25C22.05 47.45 21.4 49.95 21.4 52.75C21.4 55.45 22.05 57.95 23.35 60.25C24.65 62.55 26.4 64.4 28.6 65.8C30.9 67.1 33.5 67.75 36.4 67.75ZM56.35 42.55L52.15 37.6C55.05 34.7 58.05 32.6 61.15 31.3C64.35 29.9 68.1 29.35 72.4 29.65L73.75 38.5C70.45 38.2 67.35 38.3 64.45 38.8C61.55 39.3 58.85 40.55 56.35 42.55Z" fill="black"/>
</g>
</svg>
