<svg width="425" height="144" viewBox="0 0 425 144" fill="none" xmlns="http://www.w3.org/2000/svg">
<path d="M111.2 108.024C105.909 108.024 101.216 106.744 97.12 104.184C93.1093 101.539 89.952 97.9547 87.648 93.432C85.344 88.824 84.192 83.576 84.192 77.688C84.192 71.7147 85.344 66.4667 87.648 61.944C89.952 57.336 93.1093 53.752 97.12 51.192C101.216 48.5467 105.909 47.224 111.2 47.224C116.491 47.224 121.141 48.5467 125.152 51.192C129.248 53.752 132.448 57.336 134.752 61.944C137.056 66.4667 138.208 71.7147 138.208 77.688C138.208 83.576 137.056 88.824 134.752 93.432C132.448 97.9547 129.248 101.539 125.152 104.184C121.141 106.744 116.491 108.024 111.2 108.024ZM111.2 100.344C114.613 100.344 117.6 99.3627 120.16 97.4C122.72 95.4373 124.725 92.7493 126.176 89.336C127.712 85.9227 128.48 81.9973 128.48 77.56C128.48 73.1227 127.712 69.1973 126.176 65.784C124.725 62.3707 122.72 59.7253 120.16 57.848C117.6 55.8853 114.613 54.904 111.2 54.904C107.872 54.904 104.885 55.8853 102.24 57.848C99.68 59.7253 97.632 62.3707 96.096 65.784C94.6453 69.1973 93.92 73.1227 93.92 77.56C93.92 81.9973 94.6453 85.9227 96.096 89.336C97.632 92.7493 99.68 95.4373 102.24 97.4C104.885 99.3627 107.872 100.344 111.2 100.344ZM172 108.408C167.733 108.408 163.808 107.64 160.224 106.104C156.64 104.568 153.525 102.435 150.88 99.704C148.32 96.9733 146.315 93.7733 144.864 90.104C143.413 86.3493 142.688 82.2533 142.688 77.816C142.688 73.464 143.413 69.4533 144.864 65.784C146.315 62.0293 148.32 58.7867 150.88 56.056C153.525 53.3253 156.64 51.192 160.224 49.656C163.808 48.12 167.691 47.352 171.872 47.352C176.651 47.352 180.917 48.3333 184.672 50.296C188.512 52.1733 191.627 54.8187 194.016 58.232L188.256 63.864L187.36 64.76L186.72 64.12C186.72 63.4373 186.549 62.7973 186.208 62.2C185.952 61.6027 185.312 60.792 184.288 59.768C182.411 58.0613 180.405 56.8667 178.272 56.184C176.139 55.5013 173.664 55.16 170.848 55.16C168.373 55.16 166.027 55.672 163.808 56.696C161.589 57.72 159.584 59.2133 157.792 61.176C156.085 63.0533 154.72 65.3573 153.696 68.088C152.672 70.8187 152.16 73.848 152.16 77.176C152.16 80.504 152.672 83.576 153.696 86.392C154.72 89.1227 156.128 91.512 157.92 93.56C159.712 95.608 161.845 97.2293 164.32 98.424C166.88 99.5333 169.611 100.088 172.512 100.088C174.475 100.088 176.352 99.832 178.144 99.32C179.936 98.7227 181.643 97.912 183.264 96.888C184.885 95.7787 186.379 94.456 187.744 92.92L193.12 99.192C190.219 102.264 186.976 104.568 183.392 106.104C179.893 107.64 176.096 108.408 172 108.408ZM218.848 108.408C212.192 108.408 207.072 106.915 203.488 103.928C199.904 100.856 198.112 96.9733 198.112 92.28C198.112 89.1227 198.88 86.3067 200.416 83.832C201.952 81.272 204.043 79.1387 206.688 77.432C209.419 75.64 212.576 74.2747 216.16 73.336C219.744 72.3973 223.541 71.928 227.552 71.928C229.003 71.928 230.453 71.9707 231.904 72.056C233.44 72.056 235.019 72.1413 236.64 72.312C238.347 72.3973 240.096 72.568 241.888 72.824L242.144 79.864C240.608 79.608 239.029 79.4373 237.408 79.352C235.872 79.1813 234.336 79.0533 232.8 78.968C231.264 78.8827 229.771 78.84 228.32 78.84C225.248 78.84 222.432 79.096 219.872 79.608C217.312 80.12 215.093 80.888 213.216 81.912C211.339 82.936 209.888 84.2587 208.864 85.88C207.84 87.5013 207.328 89.464 207.328 91.768C207.328 93.56 207.627 95.096 208.224 96.376C208.907 97.5707 209.803 98.552 210.912 99.32C212.021 100.003 213.301 100.515 214.752 100.856C216.288 101.197 217.952 101.368 219.744 101.368C223.072 101.368 226.016 100.856 228.576 99.832C231.221 98.7227 233.44 97.144 235.232 95.096C237.109 93.048 238.517 90.5307 239.456 87.544C240.395 84.5573 240.864 81.144 240.864 77.304C240.864 71.5013 240.181 66.9787 238.816 63.736C237.451 60.4933 235.403 58.1893 232.672 56.824C230.027 55.4587 226.613 54.776 222.432 54.776C219.616 54.776 216.843 55.3307 214.112 56.44C211.381 57.464 208.907 59.0853 206.688 61.304L202.208 55.416C204.939 52.6853 208.096 50.6373 211.68 49.272C215.264 47.9067 219.061 47.224 223.072 47.224C226.912 47.224 230.411 47.6933 233.568 48.632C236.725 49.5707 239.413 51.1493 241.632 53.368C243.936 55.5013 245.685 58.4027 246.88 62.072C248.16 65.7413 248.8 70.3493 248.8 75.896V107H238.816V98.04C237.707 100.173 236.341 101.923 234.72 103.288C233.184 104.653 231.52 105.72 229.728 106.488C227.936 107.171 226.101 107.64 224.224 107.896C222.347 108.237 220.555 108.408 218.848 108.408ZM255.84 128.376V48.504H265.184V60.024C266.123 57.0373 267.445 54.6053 269.152 52.728C270.944 50.8507 272.992 49.4853 275.296 48.632C277.685 47.6933 280.245 47.224 282.976 47.224C286.219 47.224 289.291 47.864 292.192 49.144C295.179 50.3387 297.781 52.1733 300 54.648C302.304 57.1227 304.096 60.2373 305.376 63.992C306.741 67.7467 307.424 72.184 307.424 77.304C307.424 82.424 306.699 86.9467 305.248 90.872C303.883 94.7973 302.005 98.0827 299.616 100.728C297.312 103.288 294.667 105.251 291.68 106.616C288.779 107.896 285.792 108.536 282.72 108.536C280.416 108.536 278.155 108.152 275.936 107.384C273.803 106.701 271.84 105.677 270.048 104.312C268.256 102.861 266.677 101.197 265.312 99.32V128.376H255.84ZM281.184 100.344C283.232 100.344 285.237 100.003 287.2 99.32C289.163 98.552 290.955 97.3147 292.576 95.608C294.197 93.9013 295.477 91.5973 296.416 88.696C297.355 85.7093 297.824 82.04 297.824 77.688C297.824 72.9947 297.227 69.0267 296.032 65.784C294.837 62.456 293.088 59.896 290.784 58.104C288.565 56.312 285.835 55.3307 282.592 55.16C280.203 54.9893 277.941 55.3307 275.808 56.184C273.76 57.0373 271.925 58.4453 270.304 60.408C268.683 62.3707 267.403 64.9733 266.464 68.216C265.611 71.3733 265.184 75.2133 265.184 79.736C265.269 82.4667 265.568 84.9413 266.08 87.16C266.592 89.3787 267.317 91.3413 268.256 93.048C269.195 94.6693 270.304 96.0347 271.584 97.144C272.864 98.168 274.315 98.9787 275.936 99.576C277.557 100.088 279.307 100.344 281.184 100.344ZM329.312 129.272C325.643 129.272 322.144 128.589 318.816 127.224C315.573 125.859 312.843 123.811 310.624 121.08L315.744 114.168L316.512 113.144L317.28 113.656C317.451 114.339 317.664 114.979 317.92 115.576C318.176 116.259 318.773 117.112 319.712 118.136C320.907 119.075 322.272 119.843 323.808 120.44C325.429 121.037 327.221 121.336 329.184 121.336C331.744 121.336 334.005 120.739 335.968 119.544C338.016 118.435 339.595 116.643 340.704 114.168C341.813 111.779 342.368 108.621 342.368 104.696V56.056H320.608V48.504H351.712V104.184C351.712 110.072 350.688 114.851 348.64 118.52C346.592 122.275 343.861 125.005 340.448 126.712C337.12 128.419 333.408 129.272 329.312 129.272ZM346.336 36.216C344.544 36.216 343.008 35.576 341.728 34.296C340.448 33.016 339.808 31.48 339.808 29.688C339.808 27.8107 340.405 26.232 341.6 24.952C342.88 23.672 344.459 23.032 346.336 23.032C348.128 23.032 349.664 23.7147 350.944 25.08C352.309 26.36 352.992 27.896 352.992 29.688C352.992 31.48 352.309 33.016 350.944 34.296C349.664 35.576 348.128 36.216 346.336 36.216ZM395.616 108.28C391.349 108.28 387.467 107.64 383.968 106.36C380.469 104.995 377.44 103.032 374.88 100.472C372.405 97.912 370.485 94.7547 369.12 91C367.755 87.16 367.072 82.808 367.072 77.944C367.072 72.9947 367.755 68.6 369.12 64.76C370.571 60.92 372.491 57.72 374.88 55.16C377.355 52.5147 380.213 50.5093 383.456 49.144C386.784 47.7787 390.283 47.096 393.952 47.096C397.28 47.096 400.395 47.6507 403.296 48.76C406.197 49.8693 408.715 51.576 410.848 53.88C412.981 56.0987 414.645 58.9573 415.84 62.456C417.12 65.9547 417.76 70.0933 417.76 74.872C417.76 75.5547 417.717 76.28 417.632 77.048C417.632 77.7307 417.589 78.4133 417.504 79.096H375.904C376.075 82.8507 376.715 86.136 377.824 88.952C378.933 91.6827 380.384 93.944 382.176 95.736C383.968 97.4427 386.016 98.7227 388.32 99.576C390.709 100.429 393.227 100.856 395.872 100.856C397.92 100.856 399.84 100.643 401.632 100.216C403.424 99.704 405.088 98.9787 406.624 98.04C408.245 97.016 409.696 95.7787 410.976 94.328L416.096 99.32C414.475 101.283 412.597 102.947 410.464 104.312C408.416 105.677 406.155 106.659 403.68 107.256C401.205 107.939 398.517 108.28 395.616 108.28ZM376.288 71.928H408.416C408.416 69.1973 408.032 66.7653 407.264 64.632C406.581 62.4133 405.557 60.536 404.192 59C402.912 57.3787 401.333 56.184 399.456 55.416C397.664 54.5627 395.616 54.136 393.312 54.136C391.264 54.136 389.301 54.4773 387.424 55.16C385.632 55.8427 383.968 56.952 382.432 58.488C380.896 59.9387 379.573 61.7733 378.464 63.992C377.44 66.2107 376.715 68.856 376.288 71.928Z" fill="white"/>
<rect y="28" width="80" height="80" fill="white"/>
<path d="M39.55 143.8C34.75 143.8 30.4 143.4 26.5 142.6C22.7 141.9 19.4 140.8 16.6 139.3C13.9 137.9 11.8 136.1 10.3 133.9C8.9 131.7 8.2 129.1 8.2 126.1C8.2 123.3 8.8 120.8 10 118.6C11.2 116.4 12.75 114.6 14.65 113.2C16.65 111.7 18.8 110.6 21.1 109.9L25.6 112.6C23.8 113.7 22.35 114.8 21.25 115.9C20.15 117 19.35 118.25 18.85 119.65C18.35 121.15 18.1 122.9 18.1 124.9C18.1 126.6 18.6 128.1 19.6 129.4C20.6 130.8 22 131.95 23.8 132.85C25.7 133.75 27.95 134.45 30.55 134.95C33.25 135.45 36.3 135.7 39.7 135.7C44.3 135.7 48 135.2 50.8 134.2C53.7 133.3 55.85 132 57.25 130.3C58.65 128.7 59.35 126.85 59.35 124.75C59.35 122.55 58.95 120.75 58.15 119.35C57.35 117.95 55.7 116.9 53.2 116.2C50.7 115.5 46.9 115.15 41.8 115.15C38.3 115.15 35.1 115 32.2 114.7C29.3 114.4 26.7 113.9 24.4 113.2C22.1 112.5 20.15 111.65 18.55 110.65C17.05 109.55 15.9 108.25 15.1 106.75C14.3 105.25 13.9 103.5 13.9 101.5C13.9 98.9 14.6 96.4 16 94C17.5 91.6 19.5 89.3 22 87.1L27.1 91.15C26.1 92.25 25.3 93.25 24.7 94.15C24.1 94.95 23.65 95.75 23.35 96.55C23.15 97.25 23.05 98.05 23.05 98.95C23.05 100.55 23.65 101.85 24.85 102.85C26.15 103.85 28.35 104.6 31.45 105.1C34.55 105.5 38.75 105.7 44.05 105.7C49.35 105.7 53.65 106.15 56.95 107.05C60.25 107.85 62.75 109.05 64.45 110.65C66.25 112.25 67.5 114.1 68.2 116.2C68.9 118.3 69.25 120.6 69.25 123.1C69.25 125.8 68.7 128.35 67.6 130.75C66.6 133.25 64.95 135.45 62.65 137.35C60.35 139.35 57.3 140.9 53.5 142C49.7 143.2 45.05 143.8 39.55 143.8ZM36.4 94.75C31.5 94.75 27.25 93.7 23.65 91.6C20.05 89.4 17.25 86.5 15.25 82.9C13.35 79.2 12.4 75.15 12.4 70.75C12.4 66.35 13.35 62.35 15.25 58.75C17.25 55.15 20.05 52.3 23.65 50.2C27.25 48 31.5 46.9 36.4 46.9C41.4 46.9 45.65 48 49.15 50.2C52.75 52.3 55.5 55.15 57.4 58.75C59.4 62.35 60.4 66.35 60.4 70.75C60.4 75.15 59.4 79.2 57.4 82.9C55.5 86.5 52.75 89.4 49.15 91.6C45.65 93.7 41.4 94.75 36.4 94.75ZM36.4 85.75C39.3 85.75 41.85 85.1 44.05 83.8C46.35 82.4 48.15 80.55 49.45 78.25C50.75 75.95 51.4 73.45 51.4 70.75C51.4 67.95 50.75 65.45 49.45 63.25C48.15 60.95 46.35 59.15 44.05 57.85C41.85 56.45 39.3 55.75 36.4 55.75C33.5 55.75 30.9 56.45 28.6 57.85C26.4 59.15 24.65 60.95 23.35 63.25C22.05 65.45 21.4 67.95 21.4 70.75C21.4 73.45 22.05 75.95 23.35 78.25C24.65 80.55 26.4 82.4 28.6 83.8C30.9 85.1 33.5 85.75 36.4 85.75ZM56.35 60.55L52.15 55.6C55.05 52.7 58.05 50.6 61.15 49.3C64.35 47.9 68.1 47.35 72.4 47.65L73.75 56.5C70.45 56.2 67.35 56.3 64.45 56.8C61.55 57.3 58.85 58.55 56.35 60.55Z" fill="white"/>
<mask id="mask0_11_10" style="mask-type:alpha" maskUnits="userSpaceOnUse" x="0" y="28" width="80" height="80">
<rect y="28" width="80" height="80" fill="white"/>
</mask>
<g mask="url(#mask0_11_10)">
<path d="M39.55 143.8C34.75 143.8 30.4 143.4 26.5 142.6C22.7 141.9 19.4 140.8 16.6 139.3C13.9 137.9 11.8 136.1 10.3 133.9C8.9 131.7 8.2 129.1 8.2 126.1C8.2 123.3 8.8 120.8 10 118.6C11.2 116.4 12.75 114.6 14.65 113.2C16.65 111.7 18.8 110.6 21.1 109.9L25.6 112.6C23.8 113.7 22.35 114.8 21.25 115.9C20.15 117 19.35 118.25 18.85 119.65C18.35 121.15 18.1 122.9 18.1 124.9C18.1 126.6 18.6 128.1 19.6 129.4C20.6 130.8 22 131.95 23.8 132.85C25.7 133.75 27.95 134.45 30.55 134.95C33.25 135.45 36.3 135.7 39.7 135.7C44.3 135.7 48 135.2 50.8 134.2C53.7 133.3 55.85 132 57.25 130.3C58.65 128.7 59.35 126.85 59.35 124.75C59.35 122.55 58.95 120.75 58.15 119.35C57.35 117.95 55.7 116.9 53.2 116.2C50.7 115.5 46.9 115.15 41.8 115.15C38.3 115.15 35.1 115 32.2 114.7C29.3 114.4 26.7 113.9 24.4 113.2C22.1 112.5 20.15 111.65 18.55 110.65C17.05 109.55 15.9 108.25 15.1 106.75C14.3 105.25 13.9 103.5 13.9 101.5C13.9 98.9 14.6 96.4 16 94C17.5 91.6 19.5 89.3 22 87.1L27.1 91.15C26.1 92.25 25.3 93.25 24.7 94.15C24.1 94.95 23.65 95.75 23.35 96.55C23.15 97.25 23.05 98.05 23.05 98.95C23.05 100.55 23.65 101.85 24.85 102.85C26.15 103.85 28.35 104.6 31.45 105.1C34.55 105.5 38.75 105.7 44.05 105.7C49.35 105.7 53.65 106.15 56.95 107.05C60.25 107.85 62.75 109.05 64.45 110.65C66.25 112.25 67.5 114.1 68.2 116.2C68.9 118.3 69.25 120.6 69.25 123.1C69.25 125.8 68.7 128.35 67.6 130.75C66.6 133.25 64.95 135.45 62.65 137.35C60.35 139.35 57.3 140.9 53.5 142C49.7 143.2 45.05 143.8 39.55 143.8ZM36.4 94.75C31.5 94.75 27.25 93.7 23.65 91.6C20.05 89.4 17.25 86.5 15.25 82.9C13.35 79.2 12.4 75.15 12.4 70.75C12.4 66.35 13.35 62.35 15.25 58.75C17.25 55.15 20.05 52.3 23.65 50.2C27.25 48 31.5 46.9 36.4 46.9C41.4 46.9 45.65 48 49.15 50.2C52.75 52.3 55.5 55.15 57.4 58.75C59.4 62.35 60.4 66.35 60.4 70.75C60.4 75.15 59.4 79.2 57.4 82.9C55.5 86.5 52.75 89.4 49.15 91.6C45.65 93.7 41.4 94.75 36.4 94.75ZM36.4 85.75C39.3 85.75 41.85 85.1 44.05 83.8C46.35 82.4 48.15 80.55 49.45 78.25C50.75 75.95 51.4 73.45 51.4 70.75C51.4 67.95 50.75 65.45 49.45 63.25C48.15 60.95 46.35 59.15 44.05 57.85C41.85 56.45 39.3 55.75 36.4 55.75C33.5 55.75 30.9 56.45 28.6 57.85C26.4 59.15 24.65 60.95 23.35 63.25C22.05 65.45 21.4 67.95 21.4 70.75C21.4 73.45 22.05 75.95 23.35 78.25C24.65 80.55 26.4 82.4 28.6 83.8C30.9 85.1 33.5 85.75 36.4 85.75ZM56.35 60.55L52.15 55.6C55.05 52.7 58.05 50.6 61.15 49.3C64.35 47.9 68.1 47.35 72.4 47.65L73.75 56.5C70.45 56.2 67.35 56.3 64.45 56.8C61.55 57.3 58.85 58.55 56.35 60.55Z" fill="black"/>
</g>
</svg>
