<svg width="242" height="317" viewBox="0 0 242 317" fill="none" xmlns="http://www.w3.org/2000/svg">
<path d="M135.211 64.501C135.211 64.501 128.171 52.343 137.408 40.907C146.642 29.469 153.397 56.696 135.211 64.501Z" fill="#D2E1C7"/>
<path d="M134.225 64.746C135.535 63.643 136.431 62.188 137.229 60.727C138.004 59.243 138.624 57.682 139.124 56.079C140.145 52.874 140.716 49.537 141.285 46.163C141.415 49.583 140.995 53.043 139.968 56.347C139.437 57.991 138.755 59.601 137.826 61.072C136.901 62.526 135.745 63.918 134.225 64.746Z" fill="#859C7A"/>
<path d="M117.002 194.016C129.073 174.048 138.904 153.909 130.939 130.363C126.747 117.975 121.665 106.043 119.614 93.024C117.997 82.746 118.836 70.563 129.858 66.279C140.661 62.08 154.587 68.969 149.185 81.693C148.913 82.328 146.834 81.654 147.06 81.123C148.68 77.309 149.208 73.893 146.867 70.148C142.902 63.807 133.317 65.819 128.264 68.792C124.019 71.288 122.208 76.144 121.433 80.742C119.565 91.816 123.697 104.06 127.163 114.432C130.57 124.628 135.83 134.809 136.252 145.718C136.955 163.89 128.251 179.494 119.129 194.585C118.75 195.207 116.746 194.445 117.002 194.016Z" fill="#859C7A"/>
<path d="M119.286 71.885C119.286 71.885 125.213 51.416 107.435 37.949C89.66 24.484 89.66 67.036 119.286 71.885Z" fill="#546749"/>
<path d="M120.826 71.885C118.314 71.148 116.184 69.466 114.316 67.662C112.442 65.83 110.875 63.711 109.502 61.495C108.146 59.265 106.984 56.924 106.025 54.508C105.061 52.094 104.253 49.624 103.646 47.104C104.603 49.511 105.566 51.904 106.651 54.237C107.746 56.564 108.909 58.855 110.256 61.032C111.585 63.219 113.092 65.294 114.804 67.191C115.661 68.138 116.585 69.026 117.584 69.825C118.572 70.638 119.639 71.37 120.826 71.885Z" fill="#859C7A"/>
<path d="M117.692 188.988C117.692 188.988 96.797 184.801 93.052 162.817C89.305 140.834 127.056 160.466 117.692 188.988Z" fill="#546749"/>
<path d="M116.981 190.353C117.072 189.062 116.915 187.778 116.65 186.527C116.403 185.272 116.04 184.043 115.595 182.845C114.702 180.451 113.556 178.157 112.23 175.969C110.92 173.769 109.423 171.68 107.865 169.635C106.296 167.596 104.617 165.637 102.923 163.678C104.879 165.378 106.697 167.236 108.394 169.204C110.095 171.17 111.637 173.28 112.99 175.513C114.322 177.753 115.479 180.121 116.239 182.629C116.976 185.119 117.486 187.785 116.981 190.353Z" fill="#859C7A"/>
<path d="M152.722 78.457C152.722 78.457 165.806 77.956 170.224 64.988C174.641 52.019 149.825 60.244 152.722 78.457Z" fill="#546749"/>
<path d="M153.02 79.355C152.905 77.744 153.42 76.135 154.104 74.679C154.797 73.211 155.728 71.871 156.76 70.633C158.855 68.177 161.377 66.128 164.152 64.547C161.791 66.694 159.451 68.806 157.437 71.204C156.423 72.393 155.501 73.656 154.713 74.999C153.957 76.352 153.249 77.776 153.02 79.355Z" fill="#859C7A"/>
<path d="M152.039 80.082C152.039 80.082 159.217 83.086 158.974 91.228C158.731 99.371 146.628 89.618 152.039 80.082Z" fill="#546749"/>
<path d="M152.392 79.643C152.272 80.591 152.399 81.507 152.567 82.404C152.752 83.299 153.005 84.179 153.321 85.043C153.932 86.781 154.755 88.443 155.503 90.21C154.169 88.83 153.154 87.16 152.488 85.34C152.172 84.425 151.936 83.47 151.884 82.49C151.833 81.524 151.913 80.496 152.392 79.643Z" fill="#859C7A"/>
<path d="M125.448 74.558C125.448 74.558 139.479 75.232 144.082 89.194C148.69 103.154 122.148 94.072 125.448 74.558Z" fill="#D2E1C7"/>
<path d="M125.777 73.597C125.994 75.295 126.731 76.837 127.526 78.3C128.353 79.755 129.329 81.1231 130.405 82.4111C132.544 85.0071 135.04 87.2951 137.566 89.6031C134.621 87.8581 131.942 85.6301 129.722 82.9751C128.629 81.6381 127.645 80.192 126.912 78.614C126.192 77.049 125.648 75.323 125.777 73.597Z" fill="#859C7A"/>
<path d="M116.533 91.6591C116.533 91.6591 113.235 105.316 98.658 107.216C84.082 109.118 97.987 84.7541 116.533 91.6591Z" fill="#D2E1C7"/>
<path d="M117.414 92.1631C115.705 92.0581 114.053 92.492 112.467 92.998C110.883 93.538 109.356 94.24 107.889 95.054C104.938 96.668 102.221 98.689 99.48 100.737C101.748 98.173 104.439 95.959 107.462 94.278C108.982 93.455 110.586 92.7601 112.274 92.3371C113.945 91.9221 115.743 91.7121 117.414 92.1631Z" fill="#859C7A"/>
<path d="M129.151 113.147C129.151 113.147 133.07 129.388 150.408 131.648C167.741 133.909 151.204 104.935 129.151 113.147Z" fill="#546749"/>
<path d="M128.1 113.746C130.091 113.244 132.215 113.515 134.196 114.016C136.193 114.53 138.094 115.357 139.895 116.335C143.485 118.328 146.688 120.942 149.429 123.942C146.213 121.458 142.986 119.036 139.469 117.11C137.719 116.141 135.896 115.307 134.002 114.676C132.108 114.084 130.128 113.588 128.1 113.746Z" fill="#859C7A"/>
<path d="M53.424 54.592L53.403 54.561C53.415 54.58 53.424 54.592 53.424 54.592Z" fill="#F0657C"/>
<path d="M53.137 53.562L53.127 53.555L53.063 53.46L53.137 53.562Z" fill="#F0657C"/>
<path d="M51.557 53.92C51.56 53.923 51.565 53.9301 51.568 53.9301C51.576 53.9481 51.585 53.9611 51.588 53.9731L51.551 53.92H51.557Z" fill="#F0657C"/>
<path d="M50.278 54.391L50.224 54.334L50.282 54.374L50.278 54.391Z" fill="#F0657C"/>
<path d="M201.339 169.797C201.339 169.797 197.468 157.289 183.801 156.381C170.127 155.468 184.496 177.312 201.339 169.797Z" fill="#546749"/>
<path d="M202.13 169.278C200.604 169.806 198.915 169.724 197.333 169.44C195.735 169.151 194.199 168.598 192.736 167.922C189.822 166.533 187.189 164.627 184.944 162.357C187.629 164.083 190.275 165.796 193.112 167.121C194.523 167.793 195.982 168.356 197.484 168.769C198.987 169.15 200.545 169.464 202.13 169.278Z" fill="#859C7A"/>
<path d="M204.552 170.037C204.552 170.037 205.596 162.327 213.525 160.453C221.449 158.582 215.163 172.795 204.552 170.037Z" fill="#546749"/>
<path d="M204.036 169.81C204.983 169.682 205.835 169.321 206.658 168.927C207.474 168.517 208.26 168.044 209.011 167.515C210.532 166.476 211.924 165.249 213.437 164.07C212.45 165.717 211.1 167.13 209.514 168.244C208.711 168.786 207.849 169.261 206.917 169.565C205.998 169.863 204.984 170.053 204.036 169.81Z" fill="#859C7A"/>
<path d="M188.027 146.109L209.124 141.602C210.673 148.851 208.245 155.664 203.616 157.989C204.705 164.601 204.774 173.171 198.031 174.28C197.324 174.396 195.518 173.286 196.742 173.084C202.416 172.149 202.535 164.767 201.642 158.675C195.843 159.836 189.761 154.24 188.027 146.109Z" fill="#859C7A"/>
<path d="M220.605 116.197C218.604 109.718 213.686 105.487 209.616 106.743C206.99 107.552 205.381 110.46 205.089 114.15C202.768 111.264 199.802 109.771 197.176 110.583C193.337 111.766 191.668 117.408 193.156 123.474C190.964 117.623 186.405 113.906 182.571 115.09C179.6 116.003 177.923 119.604 177.997 123.994C175.591 120.325 172.177 118.299 169.203 119.214C165.132 120.471 163.453 126.739 165.449 133.217C166.106 135.339 167.095 137.185 168.244 138.71C174.537 148.945 187.953 153.874 200.947 149.863C216.117 145.183 224.939 130.103 220.642 116.186L220.605 116.197Z" fill="#EBA681"/>
<path d="M168.49 120.249C168.826 120.145 169.172 120.084 169.519 120.054C169.653 120.773 169.825 121.5 170.049 122.232C170.706 124.353 171.694 126.201 172.844 127.725C179.136 137.961 192.554 142.89 205.546 138.878C211.845 136.935 217.044 133.196 220.67 128.495C219.003 138.508 211.316 147.479 200.234 150.899C187.24 154.91 173.824 149.98 167.531 139.746C166.381 138.221 165.392 136.374 164.736 134.253C162.742 127.774 164.419 121.507 168.49 120.249Z" fill="#DA8C6A"/>
<path d="M214.409 114.234C215.506 116.232 216.15 118.48 216.415 120.765C216.693 123.054 216.551 125.384 216.131 127.646C215.692 129.906 214.976 132.11 213.981 134.177C212.993 136.244 211.772 138.201 210.278 139.919C211.473 137.986 212.518 135.984 213.357 133.902C214.185 131.818 214.854 129.675 215.262 127.48C215.689 125.29 215.85 123.053 215.741 120.823C215.62 118.593 215.169 116.376 214.409 114.234Z" fill="#FBD6D7"/>
<path d="M61.226 7.81804C73.448 15.542 84.83 31.83 76.153 46.077C69.83 56.461 49.418 56.799 40.697 49.575C39.71 48.755 41.733 48.384 42.328 48.876C52.835 57.58 72.91 53.28 76.51 39.771C79.836 27.286 69.486 14.769 59.596 8.51703C58.528 7.84403 60.591 7.41804 61.226 7.81804Z" fill="#859C7A"/>
<path d="M76.539 39.8671C68.792 28.187 55.136 19.1471 40.784 20.9191C40.22 20.9901 38.338 20.389 39.736 20.217C55.266 18.299 70.178 27.0911 78.669 39.8871C78.885 40.2131 76.871 40.3661 76.539 39.8671Z" fill="#859C7A"/>
<path d="M54.039 12.385C56.571 15.872 61.447 16.65 64.938 14.119C68.424 11.589 69.199 6.71103 66.671 3.22203C64.141 -0.264967 59.262 -1.04397 55.773 1.48703C52.284 4.01703 51.51 8.89603 54.039 12.385Z" fill="white"/>
<path d="M33.945 52.081C36.474 55.57 41.352 56.347 44.842 53.816C48.329 51.286 49.107 46.407 46.575 42.918C44.046 39.431 39.166 38.653 35.679 41.184C32.19 43.715 31.414 48.592 33.945 52.081Z" fill="#FFE5A8"/>
<path d="M33.944 25.149C36.475 28.638 41.353 29.415 44.842 26.885C48.329 24.354 49.107 19.476 46.575 15.987C44.046 12.499 39.166 11.722 35.679 14.252C32.19 16.782 31.411 21.661 33.944 25.149Z" fill="#FFE5A8"/>
<path d="M34.116 21.213C36.645 24.703 41.523 25.479 45.013 22.949C46.476 21.887 47.454 20.411 47.919 18.799C48.806 21.869 47.749 25.296 45.013 27.28C41.523 29.809 36.645 29.034 34.116 25.544C32.646 23.52 32.299 21.027 32.943 18.797C33.187 19.642 33.569 20.461 34.116 21.213Z" fill="#E7C883"/>
<path d="M34.116 48.234C36.645 51.723 41.523 52.499 45.013 49.97C46.476 48.908 47.454 47.432 47.919 45.82C48.806 48.89 47.749 52.317 45.013 54.301C41.523 56.831 36.645 56.054 34.116 52.565C32.646 50.54 32.299 48.048 32.943 45.817C33.187 46.662 33.569 47.481 34.116 48.234Z" fill="#E7C883"/>
<path d="M75.173 47.06C67.007 49.068 59.292 44.113 55.684 36.999C55.481 36.604 57.556 36.52 57.812 37.023C60.744 42.802 66.697 48.146 73.672 46.431C74.113 46.322 76.206 46.806 75.173 47.06Z" fill="#859C7A"/>
<path d="M78.959 37.565C78.959 37.565 92.849 35.4601 96.003 21.1001C99.154 6.74305 73.68 18.492 78.959 37.565Z" fill="#D2E1C7"/>
<path d="M78.498 38.487C78.404 36.734 78.914 34.99 79.579 33.373C80.253 31.746 81.153 30.225 82.159 28.791C84.201 25.94 86.682 23.433 89.475 21.359C87.156 23.95 84.855 26.505 82.88 29.303C81.885 30.693 80.983 32.145 80.203 33.662C79.457 35.187 78.748 36.767 78.498 38.487Z" fill="#859C7A"/>
<path d="M77.695 36.527C77.695 36.527 75.017 46.24 83.501 52.497C91.986 58.753 91.728 38.639 77.695 36.527Z" fill="#546749"/>
<path d="M77.224 35.9561C78.4 36.4061 79.393 37.25 80.258 38.157C81.126 39.073 81.86 40.108 82.506 41.185C83.777 43.355 84.694 45.713 85.236 48.147C84.216 45.872 83.215 43.6181 81.959 41.5081C81.34 40.4501 80.652 39.4351 79.886 38.4821C79.106 37.5481 78.278 36.6221 77.224 35.9561Z" fill="#859C7A"/>
<path d="M48.842 41.275C51.373 44.763 56.249 45.541 59.739 43.01C63.227 40.48 64.004 35.601 61.474 32.112C58.943 28.624 54.067 27.847 50.578 30.378C47.088 32.908 46.311 37.787 48.842 41.275Z" fill="white"/>
<path d="M52.679 8.02702C55.21 11.513 60.088 12.292 63.577 9.76102C65.672 8.24202 66.78 5.87602 66.79 3.47302C69.164 6.94802 68.363 11.7 64.936 14.187C61.446 16.717 56.569 15.939 54.037 12.453C53.027 11.058 52.554 9.44202 52.559 7.84202C52.602 7.90402 52.636 7.96702 52.679 8.02702Z" fill="#D2E1C7"/>
<path d="M47.481 36.593C50.012 40.08 54.89 40.858 58.379 38.328C60.473 36.808 61.581 34.443 61.591 32.04C63.966 35.514 63.166 40.267 59.739 42.753C56.248 45.283 51.372 44.505 48.841 41.019C47.829 39.624 47.356 38.0091 47.362 36.409C47.403 36.47 47.438 36.533 47.481 36.593Z" fill="#D2E1C7"/>
<path d="M69.739 108.456C69.739 108.456 72.389 99.892 81.751 99.268C91.113 98.646 81.274 113.603 69.739 108.456Z" fill="#546749"/>
<path d="M69.198 108.101C70.294 108.163 71.339 107.929 72.355 107.646C73.368 107.344 74.355 106.956 75.313 106.498C77.244 105.601 79.056 104.457 80.965 103.362C79.498 105.003 77.697 106.338 75.689 107.299C74.679 107.763 73.616 108.139 72.506 108.318C71.411 108.491 70.234 108.529 69.198 108.101Z" fill="#D2E1C7"/>
<path d="M67.539 108.62C67.539 108.62 66.823 103.341 61.394 102.057C55.966 100.777 60.272 110.511 67.539 108.62Z" fill="#546749"/>
<path d="M67.892 108.466C67.244 108.69 66.523 108.588 65.878 108.398C65.221 108.206 64.619 107.881 64.062 107.507C62.965 106.732 62.048 105.736 61.455 104.535C62.574 105.269 63.534 106.079 64.565 106.779C65.072 107.138 65.596 107.463 66.138 107.76C66.686 108.045 67.243 108.319 67.892 108.466Z" fill="#D2E1C7"/>
<path d="M78.858 92.235L64.409 89.149C63.349 94.111 65.012 98.779 68.179 100.371C67.434 104.9 67.387 110.767 72.007 111.529C72.49 111.608 73.726 110.845 72.89 110.71C69.001 110.069 68.922 105.011 69.535 100.842C73.504 101.636 77.667 97.803 78.858 92.235Z" fill="#D2E1C7"/>
<path d="M58.012 70.285C59.381 65.848 62.749 62.951 65.537 63.81C67.337 64.365 68.44 66.356 68.639 68.883C70.229 66.906 72.258 65.885 74.058 66.44C76.686 67.251 77.829 71.114 76.811 75.268C78.311 71.263 81.435 68.717 84.061 69.527C86.095 70.153 87.244 72.617 87.192 75.626C88.838 73.113 91.178 71.725 93.214 72.351C96.002 73.212 97.15 77.505 95.785 81.941C95.335 83.394 94.659 84.659 93.871 85.703C89.562 92.713 80.374 96.089 71.474 93.342C61.085 90.137 55.045 79.81 57.987 70.278L58.012 70.285Z" fill="#A43448"/>
<path d="M66.82 85.819C75.72 88.566 84.908 85.19 89.218 78.181C90.005 77.137 90.682 75.871 91.131 74.418C91.294 73.893 91.416 73.369 91.51 72.853C92.237 72.631 92.968 72.594 93.665 72.808C96.452 73.67 97.6 77.963 96.236 82.398C95.785 83.851 95.11 85.116 94.321 86.16C90.011 93.17 80.824 96.546 71.926 93.799C65.3 91.755 60.447 86.812 58.561 81.028C60.805 83.151 63.605 84.827 66.82 85.819Z" fill="#881C37"/>
<path d="M61.454 70.541C61.128 72.265 61.025 74.003 61.059 75.72C61.113 77.436 61.343 79.141 61.837 80.768C62.312 82.399 63.055 83.946 64.025 85.351C65.001 86.753 66.195 88.017 67.539 89.148C66.001 88.302 64.591 87.167 63.472 85.766C62.338 84.377 61.506 82.741 60.99 81.02C60.485 79.294 60.284 77.491 60.372 75.713C60.453 73.938 60.797 72.174 61.454 70.541Z" fill="#FBD6D7"/>
<path d="M152.179 153.547L143.459 151.684C142.821 154.678 143.819 157.495 145.735 158.455C145.282 161.187 145.257 164.728 148.044 165.188C148.335 165.236 149.083 164.778 148.575 164.694C146.231 164.306 146.182 161.255 146.552 158.74C148.947 159.219 151.457 156.908 152.179 153.547Z" fill="#546749"/>
<path d="M138.713 141.186C139.539 138.508 141.575 136.759 143.254 137.278C144.34 137.614 145.005 138.814 145.126 140.34C146.086 139.147 147.311 138.529 148.396 138.864C149.983 139.354 150.669 141.685 150.057 144.193C150.962 141.775 152.847 140.238 154.43 140.728C155.659 141.104 156.354 142.593 156.323 144.408C157.315 142.892 158.726 142.053 159.954 142.433C161.64 142.951 162.33 145.543 161.506 148.218C161.234 149.096 160.825 149.859 160.351 150.489C157.752 154.719 152.207 156.756 146.838 155.097C140.567 153.163 136.922 146.93 138.697 141.181L138.713 141.186Z" fill="#F5A9A9"/>
<path d="M138.535 141.129L138.55 141.133C139.17 139.12 140.476 137.634 141.8 137.238C141.439 137.794 141.133 138.437 140.912 139.148L140.897 139.144C139.122 144.893 142.767 151.126 149.037 153.06C152.64 154.171 156.312 153.617 159.129 151.859C156.261 155.099 151.402 156.505 146.676 155.045C140.406 153.112 136.759 146.879 138.535 141.129Z" fill="#E28C8C"/>
<path d="M158.981 148.406C158.981 148.406 156.283 155.856 149.429 154.385" stroke="#F8CDBA" stroke-width="0.8857" stroke-miterlimit="10"/>
<path d="M190.804 270.507C194.665 264.292 188.832 261.62 188.832 261.62C188.832 261.62 188.076 269.387 178.784 269.79C169.492 270.191 162.681 280.61 168.587 289.504L170.753 292.054C177.274 300.504 189.329 297.408 192.699 288.742C196.071 280.072 203.667 281.857 203.667 281.857C203.667 281.857 201.338 275.734 196.483 277.178L201.008 266.741L190.804 270.507Z" fill="#FFE5A8"/>
<path d="M173.79 270.896C170.454 274.836 169.463 280.67 172.978 285.962L175.144 288.512C179.175 293.738 185.321 294.542 190.225 292.352C185.387 298.09 175.929 299.194 170.421 292.054L168.256 289.504C163.402 282.193 167.145 273.856 173.79 270.896Z" fill="#E7C883"/>
<path d="M170.77 292.565C163.44 296.298 163.085 305.813 164.94 312.711C165.079 313.226 162.991 312.92 162.839 312.356C160.947 305.316 161.307 295.624 168.775 291.821C169.346 291.532 171.084 292.406 170.77 292.565Z" fill="#859C7A"/>
<path d="M160.734 305.921C160.734 305.921 148.935 304.133 146.259 291.935C143.581 279.744 165.217 289.719 160.734 305.921Z" fill="#546749"/>
<path d="M160.371 306.703C160.308 305.249 159.804 303.894 159.253 302.597C158.671 301.305 157.965 300.071 157.169 298.893C155.593 296.519 153.697 294.366 151.799 292.158C154.171 293.849 156.255 295.961 157.905 298.402C158.714 299.631 159.42 300.942 159.893 302.347C160.362 303.738 160.656 305.256 160.371 306.703Z" fill="#859C7A"/>
<path d="M192.436 282.422C192.272 284.151 191.873 285.861 191.273 287.504C190.675 289.148 189.867 290.737 188.764 292.142C187.661 293.53 186.198 294.736 184.451 295.266C182.71 295.818 180.838 295.593 179.246 294.933C180.946 295.263 182.689 295.215 184.224 294.613C185.757 294.006 187.044 292.901 188.07 291.592C189.115 290.289 189.926 288.789 190.635 287.244C191.326 285.688 191.937 284.082 192.436 282.422Z" fill="white"/>
<path d="M24.874 312.308C24.874 312.308 32.761 312.588 35.993 304.987C39.223 297.385 23.94 301.227 24.874 312.308Z" fill="#546749"/>
<path d="M25.013 312.86C24.935 311.872 25.3 310.893 25.756 310.025C26.221 309.147 26.843 308.368 27.523 307.66C28.908 306.267 30.55 305.161 32.362 304.453C30.922 305.758 29.456 306.937 28.156 308.279C27.498 308.939 26.89 309.643 26.341 310.389C25.806 311.145 25.301 311.935 25.013 312.86Z" fill="#A6CBBB"/>
<path d="M13.497 312.308C13.497 312.308 5.60801 312.588 2.37701 304.987C-0.850995 297.385 14.432 301.227 13.497 312.308Z" fill="#546749"/>
<path d="M13.357 312.86C13.07 311.935 12.564 311.145 12.03 310.389C11.48 309.643 10.873 308.94 10.215 308.279C8.915 306.937 7.449 305.757 6.008 304.453C7.82 305.161 9.462 306.267 10.847 307.66C11.527 308.368 12.148 309.147 12.613 310.025C13.07 310.893 13.435 311.871 13.357 312.86Z" fill="#A6CBBB"/>
<path d="M4.49099 287.682C13.485 291.298 14.649 304.74 14.337 312.704C14.317 313.24 15.396 313.068 15.414 312.612C15.737 304.225 14.446 290.745 5.111 286.992C4.685 286.822 3.87199 287.431 4.49099 287.682Z" fill="#859C7A"/>
<path d="M31.813 287.075C22.429 290.849 21.101 304.406 21.428 312.802C21.445 313.208 22.509 312.977 22.491 312.518C22.18 304.547 23.311 291.199 32.255 287.6C32.939 287.324 32.323 286.869 31.813 287.075Z" fill="#859C7A"/>
<path d="M17.689 268.757V312.74C17.689 313.856 19.843 313.532 19.843 312.577V268.593C19.843 267.479 17.689 267.802 17.689 268.757Z" fill="#859C7A"/>
<path d="M27.096 263.087C27.096 267.898 23.194 271.8 18.382 271.8C13.568 271.8 9.668 267.899 9.668 263.087C9.668 258.274 13.567 254.373 18.382 254.373C23.194 254.374 27.096 258.275 27.096 263.087Z" fill="#FFE5A8"/>
<path d="M18.739 269.327C14.597 269.327 11.137 266.434 10.251 262.559C10.109 263.185 10.027 263.834 10.027 264.504C10.027 269.317 13.926 273.218 18.739 273.218C23.553 273.218 27.454 269.317 27.454 264.504C27.454 263.834 27.372 263.185 27.227 262.559C26.343 266.433 22.883 269.327 18.739 269.327Z" fill="#E7C883"/>
<path d="M11.336 286.626C11.336 289.756 8.79801 292.295 5.66701 292.295C2.53801 292.295 0 289.756 0 286.626C0 283.496 2.53801 280.957 5.66701 280.957C8.79801 280.957 11.336 283.496 11.336 286.626Z" fill="white"/>
<path d="M9.218 283.646C8.852 286.423 6.482 288.569 3.606 288.569C2.585 288.569 1.62899 288.294 0.800995 287.82C0.768995 288.065 0.746002 288.314 0.746002 288.569C0.746002 291.698 3.284 294.237 6.414 294.237C9.544 294.237 12.082 291.698 12.082 288.569C12.082 286.458 10.928 284.624 9.218 283.646Z" fill="#D2E1C7"/>
<path d="M36.237 288.091C36.237 291.222 33.699 293.76 30.568 293.76C27.437 293.76 24.9 291.222 24.9 288.091C24.9 284.96 27.437 282.422 30.568 282.422C33.698 282.422 36.237 284.96 36.237 288.091Z" fill="white"/>
<path d="M5.69501 287.075C15.08 290.849 16.406 304.406 16.079 312.802C16.062 313.208 15 312.977 15.015 312.518C15.326 304.547 14.195 291.199 5.25101 287.6C4.56801 287.324 5.18301 286.869 5.69501 287.075Z" fill="#859C7A"/>
<path d="M19.818 268.757V312.74C19.818 313.856 17.666 313.532 17.666 312.577V268.593C17.665 267.479 19.818 267.802 19.818 268.757Z" fill="#859C7A"/>
<path d="M27.746 283.646C28.112 286.423 30.481 288.569 33.358 288.569C34.379 288.569 35.335 288.294 36.162 287.82C36.195 288.065 36.218 288.314 36.218 288.569C36.218 291.698 33.68 294.237 30.551 294.237C27.421 294.237 24.884 291.698 24.884 288.569C24.884 286.458 26.035 284.624 27.746 283.646Z" fill="#D2E1C7"/>
<path d="M33.014 287.682C24.022 291.298 22.859 304.74 23.169 312.704C23.189 313.24 22.111 313.068 22.094 312.612C21.768 304.225 23.06 290.745 32.396 286.992C32.821 286.822 33.634 287.431 33.014 287.682Z" fill="#859C7A"/>
<path d="M40.375 311.834C40.375 314.533 61.686 316.721 87.974 316.721C114.265 316.721 135.577 314.533 135.577 311.834C135.577 309.133 114.266 306.946 87.974 306.946C61.686 306.947 40.375 309.133 40.375 311.834Z" fill="#8AAF9E"/>
<path d="M145.341 269.821C141.813 267.328 137.84 262.219 134.131 252.263C132.474 247.825 131.009 243.077 129.524 238.252C125.496 218.621 127.15 202.52 138.011 179.319C154.296 144.532 201.787 163.547 169.441 200.709C142.399 231.772 144.067 261.049 145.341 269.821Z" fill="#A43448"/>
<path d="M140.411 264.402C139.136 255.63 137.469 226.353 164.511 195.291C175.789 182.332 177.356 171.585 173.927 164.552C182.08 170.472 184.151 183.745 169.233 200.887C142.19 231.95 143.859 261.225 145.131 269.997C143.266 268.679 141.273 266.616 139.264 263.503C139.651 263.832 140.034 264.135 140.411 264.402Z" fill="#881C37"/>
<path d="M152.561 273.714C152.561 273.714 140.273 281.312 131.693 254.089C123.091 226.866 122.022 188.718 79.214 188.977C56.748 189.09 46.431 210.051 42.953 227.624C36.297 261.435 83.259 332.848 152.561 273.714Z" fill="#EBA681"/>
<path d="M42.952 227.114C45.254 215.482 50.557 202.372 60.392 194.8C59.169 198.277 58.237 201.802 57.565 205.2C51.847 234.241 85.686 291.019 139.261 268.996C146.09 277.201 152.56 273.205 152.56 273.205C83.259 332.337 36.297 260.924 42.952 227.114Z" fill="#DA8C6A"/>
<path d="M122.292 279.254C122.292 279.254 117.131 283.037 112.353 271.254C107.615 259.472 106.374 245.325 87.384 246.918C77.407 247.748 73.751 257.055 72.059 263.465C68.84 275.999 93.595 307.895 122.292 279.254Z" fill="#A43448"/>
<path d="M71.806 263.773C73.437 257.597 76.91 248.754 86.084 247.373C84.318 250.272 83.236 253.52 82.516 256.245C79.761 266.977 97.518 291.904 120.698 280.862C92.575 307.211 68.638 276.11 71.806 263.773Z" fill="#881C37"/>
<path d="M142.918 268.816C160.151 236.086 171.412 220.876 206.045 209.223C242.451 196.974 261.501 244.452 212.286 246.727C178.932 248.264 159.461 262.641 150.368 271.751C148.372 271.825 145.736 271.244 142.918 268.816Z" fill="#881C37"/>
<path d="M139.509 264.963C144.327 227.025 149.273 208.635 178.152 185.258C208.007 161.088 242.407 198.955 197.069 218.234C158.416 234.67 147.43 262.483 145.03 270.334C143.272 269.318 141.392 267.633 139.509 264.963Z" fill="#F48256"/>
<path d="M141.706 263.715C144.106 255.863 155.093 228.051 193.747 211.613C212.148 203.788 217.413 192.899 215.178 184.342C223.389 193.001 221.754 208.431 197.733 218.645C159.08 235.083 148.092 262.894 145.692 270.746C143.934 269.729 142.054 268.044 140.171 265.376C140.278 264.54 140.384 263.726 140.49 262.908C140.901 263.212 141.307 263.484 141.706 263.715Z" fill="#D16942"/>
<path d="M162.036 175.063C159.692 178.442 157.616 181.995 155.666 185.606C153.701 189.211 151.885 192.894 150.233 196.649C146.925 204.153 144.172 211.909 142.254 219.878C140.267 227.826 139.12 235.985 138.912 244.178C138.8 248.274 138.948 252.379 139.359 256.46C139.738 260.545 140.4 264.607 141.327 268.613C140.261 264.642 139.454 260.595 138.928 256.508C138.426 252.418 138.201 248.292 138.231 244.166C138.298 235.912 139.46 227.684 141.394 219.667C143.397 211.662 146.158 203.852 149.615 196.37C153.086 188.899 157.145 181.681 162.036 175.063Z" fill="#EBA681"/>
<path d="M199.923 192.836C196.337 195.09 192.887 197.548 189.511 200.096C186.123 202.627 182.819 205.27 179.617 208.03C173.215 213.543 167.14 219.457 161.764 225.964C156.348 232.425 151.613 239.498 148.161 247.196C146.435 251.039 145.066 255.049 144.168 259.171C143.24 263.285 142.796 267.521 142.919 271.755C142.651 267.527 142.95 263.26 143.743 259.083C144.561 254.91 145.871 250.837 147.537 246.923C150.894 239.089 155.683 231.948 161.084 225.4C166.556 218.893 172.656 212.937 179.18 207.512C185.71 202.097 192.613 197.124 199.923 192.836Z" fill="#EBA681"/>
<path d="M218.003 224.601C214.271 225.203 210.595 226.097 206.963 227.119C203.327 228.125 199.735 229.287 196.208 230.616C189.154 233.266 182.305 236.489 175.932 240.498C169.525 244.441 163.599 249.177 158.444 254.661C155.861 257.397 153.488 260.334 151.358 263.442C149.203 266.534 147.305 269.811 145.674 273.221C147.173 269.751 148.948 266.393 150.996 263.201C153.065 260.023 155.397 257.016 157.942 254.198C163.044 248.564 169.039 243.781 175.465 239.745C181.932 235.766 188.83 232.508 195.976 229.977C203.122 227.463 210.498 225.556 218.003 224.601Z" fill="#EBA681"/>
<path d="M63.74 212.355C63.74 221.064 70.801 228.126 79.508 228.126C88.217 228.126 95.279 221.064 95.279 212.355C95.279 203.646 88.216 196.586 79.508 196.586C70.801 196.586 63.74 203.646 63.74 212.355Z" fill="white"/>
<path d="M66.835 210.267C66.835 214.961 70.64 218.768 75.332 218.768C80.027 218.768 83.834 214.961 83.834 210.267C83.834 205.573 80.027 201.77 75.332 201.77C70.64 201.77 66.835 205.573 66.835 210.267Z" fill="#546749"/>
<path d="M68.921 208.179C68.921 210.569 70.857 212.505 73.246 212.505C75.634 212.505 77.57 210.569 77.57 208.179C77.57 205.792 75.634 203.855 73.246 203.855C70.858 203.855 68.921 205.792 68.921 208.179Z" fill="white"/>
<path d="M89.228 309.789C94.46 306.155 97.068 301.778 98.3 297.761C100.797 297.892 103.361 297.845 105.989 297.608C99.778 310.752 78.439 317.276 89.228 309.789Z" fill="#FFE5A8"/>
<path d="M74.312 309.509C80.675 305.091 83.164 299.569 84.006 294.933C86.344 295.756 88.765 296.417 91.265 296.901C85.322 310.332 63.407 317.081 74.312 309.509Z" fill="#E7C883"/>
<path d="M97.72 131.203C104.735 119.923 94.144 115.073 94.144 115.073C94.144 115.073 92.768 129.175 75.902 129.906C59.037 130.634 46.67 149.549 57.388 165.693L61.323 170.321C73.16 185.665 95.045 180.044 101.165 164.307C107.284 148.572 121.077 151.81 121.077 151.81C121.077 151.81 116.845 140.695 108.033 143.316L116.249 124.375L97.72 131.203Z" fill="#F0657C"/>
<path d="M60.707 171.009C47.35 177.81 46.712 195.141 50.089 207.704C50.248 208.304 47.816 207.949 47.639 207.288C44.215 194.552 44.872 177.018 58.38 170.142C59.044 169.803 61.072 170.823 60.707 171.009Z" fill="#D2E1C7"/>
<path d="M43.932 199.49C43.932 199.49 27.729 197.035 24.052 180.284C20.374 163.537 50.09 177.242 43.932 199.49Z" fill="#546749"/>
<path d="M44.468 200.565C44.176 198.559 43.35 196.716 42.479 194.937C41.571 193.167 40.517 191.473 39.357 189.852C37.054 186.59 34.37 183.609 31.665 180.587C34.922 183.005 37.817 185.93 40.199 189.255C41.372 190.928 42.423 192.702 43.209 194.6C43.983 196.486 44.577 198.521 44.468 200.565Z" fill="#D2E1C7"/>
<path d="M50.68 217.48L42.616 203.673L59.714 205.146C59.714 205.146 60.592 218.25 50.68 217.48Z" fill="#E7C883"/>
<path d="M48.342 208.517C51.79 213.371 53.739 220.425 49.243 225.229C48.57 225.949 50.115 226.096 50.557 225.624C55.362 220.49 53.543 213.103 49.808 207.844C49.429 207.308 47.898 207.892 48.342 208.517Z" fill="#D2E1C7"/>
<path d="M57.67 211.68C57.67 211.68 45.447 207.352 42.615 203.673" stroke="#DA8C6A" stroke-width="0.8248" stroke-miterlimit="10"/>
<path d="M113.252 131.066C113.218 131.075 113.186 131.082 113.151 131.091L115.973 124.586L116.078 124.546L113.252 131.066Z" fill="#BF3D56"/>
<path d="M58.615 138.608C58.14 143.428 59.257 148.574 62.506 153.467L66.442 158.096C78.28 173.44 100.165 167.819 106.285 152.082C107.875 147.994 109.983 145.195 112.232 143.278C118.077 144.559 120.908 151.982 120.908 151.982C120.908 151.982 107.114 148.746 100.996 164.48C94.876 180.215 72.991 185.837 61.153 170.493L57.219 165.865C50.867 156.298 52.623 145.761 58.615 138.608Z" fill="#BF3D56"/>
<path d="M73.604 134.001C71.924 134.44 70.324 135.109 68.867 136.01C67.394 136.882 66.044 137.945 64.834 139.144C62.421 141.544 60.473 144.415 59.215 147.562C57.943 150.694 57.373 154.14 57.868 157.488C58.346 160.84 60.08 163.97 62.584 166.372C61.193 165.33 59.993 164.021 59.031 162.542C58.095 161.047 57.438 159.368 57.085 157.626C56.372 154.121 56.946 150.455 58.257 147.177C59.596 143.897 61.658 140.916 64.293 138.567C65.611 137.397 67.061 136.372 68.624 135.569C70.198 134.796 71.876 134.211 73.604 134.001Z" fill="#F8CDBA"/>
</svg>
