<svg width="242" height="317" viewBox="0 0 242 317" fill="none" xmlns="http://www.w3.org/2000/svg">
<path d="M106.742 64.501C106.742 64.501 113.781 52.343 104.545 40.907C95.3108 29.469 88.5559 56.696 106.742 64.501Z" fill="#D2E1C7"/>
<path d="M107.728 64.746C106.418 63.643 105.522 62.188 104.724 60.727C103.949 59.243 103.329 57.682 102.829 56.079C101.808 52.874 101.237 49.537 100.668 46.163C100.538 49.583 100.958 53.043 101.985 56.347C102.516 57.991 103.198 59.601 104.127 61.072C105.052 62.526 106.208 63.918 107.728 64.746Z" fill="#859C7A"/>
<path d="M124.95 194.016C112.879 174.048 103.049 153.909 111.013 130.363C115.205 117.975 120.287 106.043 122.338 93.024C123.955 82.746 123.116 70.563 112.094 66.279C101.292 62.08 87.3659 68.969 92.7678 81.693C93.0398 82.328 95.1188 81.654 94.8928 81.123C93.2728 77.309 92.7448 73.893 95.0858 70.148C99.0507 63.807 108.636 65.819 113.688 68.792C117.933 71.288 119.744 76.144 120.519 80.742C122.387 91.816 118.255 104.06 114.789 114.432C111.382 124.628 106.123 134.809 105.701 145.718C104.998 163.89 113.701 179.494 122.823 194.585C123.202 195.207 125.206 194.445 124.95 194.016Z" fill="#859C7A"/>
<path d="M122.666 71.885C122.666 71.885 116.739 51.416 134.517 37.949C152.292 24.484 152.292 67.036 122.666 71.885Z" fill="#546749"/>
<path d="M121.126 71.885C123.638 71.148 125.768 69.466 127.636 67.662C129.51 65.83 131.077 63.711 132.45 61.495C133.806 59.265 134.968 56.924 135.927 54.508C136.891 52.094 137.699 49.624 138.306 47.104C137.349 49.511 136.386 51.904 135.301 54.237C134.206 56.564 133.043 58.855 131.696 61.032C130.367 63.219 128.86 65.294 127.148 67.191C126.291 68.138 125.367 69.026 124.368 69.825C123.38 70.638 122.313 71.37 121.126 71.885Z" fill="#859C7A"/>
<path d="M124.26 188.988C124.26 188.988 145.155 184.801 148.9 162.817C152.647 140.834 114.896 160.466 124.26 188.988Z" fill="#546749"/>
<path d="M124.971 190.353C124.88 189.062 125.037 187.778 125.302 186.527C125.549 185.272 125.912 184.043 126.357 182.845C127.25 180.451 128.396 178.157 129.722 175.969C131.032 173.769 132.529 171.68 134.087 169.635C135.656 167.596 137.335 165.637 139.029 163.678C137.073 165.378 135.255 167.236 133.558 169.204C131.857 171.17 130.315 173.28 128.962 175.513C127.63 177.753 126.473 180.121 125.713 182.629C124.976 185.119 124.466 187.785 124.971 190.353Z" fill="#859C7A"/>
<path d="M89.2308 78.457C89.2308 78.457 76.1471 77.956 71.7292 64.988C67.3122 52.019 92.1278 60.244 89.2308 78.457Z" fill="#546749"/>
<path d="M88.9329 79.355C89.0479 77.744 88.5329 76.135 87.8489 74.679C87.1559 73.211 86.2249 71.871 85.1929 70.633C83.098 68.177 80.576 66.128 77.8011 64.547C80.162 66.694 82.502 68.806 84.516 71.204C85.5299 72.393 86.4519 73.656 87.2399 74.999C87.9959 76.352 88.7039 77.776 88.9329 79.355Z" fill="#859C7A"/>
<path d="M89.9138 80.082C89.9138 80.082 82.736 83.086 82.979 91.228C83.222 99.371 95.3247 89.618 89.9138 80.082Z" fill="#546749"/>
<path d="M89.5608 79.643C89.6808 80.591 89.5539 81.507 89.3859 82.404C89.2009 83.299 88.9479 84.179 88.6319 85.043C88.0209 86.781 87.1979 88.443 86.4499 90.21C87.7839 88.83 88.7989 87.16 89.4649 85.34C89.7809 84.425 90.0169 83.47 90.0689 82.49C90.1199 81.524 90.0398 80.496 89.5608 79.643Z" fill="#859C7A"/>
<path d="M116.504 74.558C116.504 74.558 102.474 75.232 97.8707 89.194C93.2628 103.154 119.804 94.072 116.504 74.558Z" fill="#D2E1C7"/>
<path d="M116.175 73.597C115.958 75.295 115.221 76.837 114.426 78.3C113.599 79.755 112.623 81.1231 111.547 82.4111C109.408 85.0071 106.913 87.2951 104.387 89.6031C107.332 87.8581 110.01 85.6301 112.23 82.9751C113.323 81.6381 114.307 80.192 115.04 78.614C115.76 77.049 116.304 75.323 116.175 73.597Z" fill="#859C7A"/>
<path d="M125.419 91.659C125.419 91.659 128.717 105.316 143.294 107.216C157.87 109.118 143.965 84.754 125.419 91.659Z" fill="#D2E1C7"/>
<path d="M124.538 92.1631C126.247 92.0581 127.899 92.492 129.485 92.998C131.069 93.538 132.596 94.24 134.063 95.054C137.014 96.668 139.731 98.689 142.472 100.737C140.204 98.173 137.513 95.959 134.49 94.278C132.97 93.455 131.366 92.7601 129.678 92.3371C128.007 91.9221 126.209 91.7121 124.538 92.1631Z" fill="#859C7A"/>
<path d="M112.801 113.147C112.801 113.147 108.883 129.388 91.5448 131.648C74.2122 133.909 90.7488 104.935 112.801 113.147Z" fill="#546749"/>
<path d="M113.852 113.746C111.861 113.244 109.738 113.515 107.757 114.016C105.76 114.53 103.859 115.357 102.058 116.335C98.4677 118.328 95.2648 120.942 92.5238 123.942C95.7398 121.458 98.9667 119.036 102.484 117.11C104.234 116.141 106.057 115.307 107.951 114.676C109.844 114.084 111.824 113.588 113.852 113.746Z" fill="#859C7A"/>
<path d="M188.527 54.592L188.548 54.561C188.536 54.58 188.527 54.592 188.527 54.592Z" fill="#F0657C"/>
<path d="M188.815 53.562L188.825 53.555L188.888 53.46L188.815 53.562Z" fill="#F0657C"/>
<path d="M190.394 53.92C190.391 53.923 190.386 53.9301 190.383 53.9301C190.375 53.9481 190.366 53.9611 190.363 53.9731L190.4 53.92H190.394Z" fill="#F0657C"/>
<path d="M191.673 54.391L191.727 54.334L191.669 54.374L191.673 54.391Z" fill="#F0657C"/>
<path d="M40.6148 169.797C40.6148 169.797 44.4857 157.289 58.1524 156.381C71.8262 155.468 57.4575 177.312 40.6148 169.797Z" fill="#546749"/>
<path d="M39.8238 169.278C41.3498 169.806 43.0387 169.724 44.6207 169.44C46.2187 169.151 47.7546 168.598 49.2176 167.922C52.1315 166.533 54.7645 164.627 57.0094 162.357C54.3245 164.083 51.6785 165.796 48.8416 167.121C47.4306 167.793 45.9717 168.356 44.4697 168.769C42.9667 169.15 41.4088 169.464 39.8238 169.278Z" fill="#859C7A"/>
<path d="M37.4018 170.037C37.4018 170.037 36.3579 162.327 28.429 160.453C20.5051 158.582 26.791 172.795 37.4018 170.037Z" fill="#546749"/>
<path d="M37.9178 169.81C36.9708 169.682 36.1189 169.321 35.2959 168.927C34.4799 168.517 33.6939 168.044 32.9429 167.515C31.4219 166.476 30.03 165.249 28.517 164.07C29.504 165.717 30.854 167.13 32.4399 168.244C33.2429 168.786 34.1049 169.261 35.0369 169.565C35.9559 169.863 36.9698 170.053 37.9178 169.81Z" fill="#859C7A"/>
<path d="M53.9265 146.109L32.8299 141.602C31.2809 148.851 33.7089 155.664 38.3378 157.989C37.2488 164.601 37.1798 173.171 43.9227 174.28C44.6297 174.396 46.4357 173.286 45.2117 173.084C39.5378 172.149 39.4188 164.767 40.3118 158.675C46.1107 159.836 52.1926 154.24 53.9265 146.109Z" fill="#859C7A"/>
<path d="M21.3492 116.197C23.3501 109.718 28.268 105.487 32.3379 106.743C34.9639 107.552 36.5729 110.46 36.8649 114.15C39.1858 111.264 42.1518 109.771 44.7777 110.583C48.6166 111.766 50.2856 117.408 48.7977 123.474C50.9896 117.623 55.5485 113.906 59.3824 115.09C62.3534 116.003 64.0304 119.604 63.9564 123.994C66.3623 120.325 69.7763 118.299 72.7502 119.214C76.8211 120.471 78.5001 126.739 76.5041 133.217C75.8471 135.339 74.8582 137.185 73.7092 138.71C67.4163 148.945 54.0005 153.874 41.0068 149.863C25.8371 145.183 17.0152 130.103 21.3121 116.186L21.3492 116.197Z" fill="#EBA681"/>
<path d="M73.4632 120.249C73.1272 120.145 72.7812 120.084 72.4342 120.054C72.3002 120.773 72.1282 121.5 71.9042 122.232C71.2472 124.353 70.2592 126.201 69.1092 127.725C62.8174 137.961 49.3996 142.89 36.4078 138.878C30.109 136.935 24.9101 133.196 21.2841 128.495C22.9511 138.508 30.638 147.479 41.7198 150.899C54.7135 154.91 68.1293 149.98 74.4222 139.746C75.5721 138.221 76.5611 136.374 77.2171 134.253C79.211 127.774 77.5341 121.507 73.4632 120.249Z" fill="#DA8C6A"/>
<path d="M27.545 114.234C26.448 116.232 25.804 118.48 25.5391 120.765C25.2611 123.054 25.4031 125.384 25.823 127.646C26.262 129.906 26.978 132.11 27.973 134.177C28.961 136.244 30.182 138.201 31.6759 139.919C30.481 137.986 29.436 135.984 28.597 133.902C27.769 131.818 27.1 129.675 26.692 127.48C26.265 125.29 26.104 123.053 26.213 120.823C26.334 118.593 26.785 116.376 27.545 114.234Z" fill="#FBD6D7"/>
<path d="M180.725 7.81804C168.503 15.542 157.122 31.83 165.798 46.077C172.121 56.461 192.533 56.799 201.254 49.575C202.241 48.755 200.218 48.384 199.623 48.876C189.116 57.58 169.041 53.28 165.441 39.771C162.115 27.286 172.465 14.769 182.355 8.51703C183.423 7.84403 181.36 7.41804 180.725 7.81804Z" fill="#859C7A"/>
<path d="M165.412 39.8671C173.159 28.187 186.815 19.1471 201.167 20.9191C201.731 20.9901 203.613 20.389 202.215 20.217C186.685 18.299 171.773 27.0911 163.282 39.8871C163.066 40.2131 165.08 40.3661 165.412 39.8671Z" fill="#859C7A"/>
<path d="M187.912 12.385C185.38 15.872 180.504 16.65 177.013 14.119C173.527 11.589 172.752 6.71103 175.28 3.22203C177.81 -0.264967 182.689 -1.04397 186.178 1.48703C189.667 4.01703 190.441 8.89603 187.912 12.385Z" fill="white"/>
<path d="M208.006 52.081C205.477 55.57 200.599 56.347 197.109 53.816C193.622 51.286 192.844 46.407 195.376 42.918C197.905 39.431 202.785 38.653 206.272 41.184C209.761 43.715 210.537 48.592 208.006 52.081Z" fill="#FFE5A8"/>
<path d="M208.007 25.149C205.476 28.638 200.598 29.415 197.109 26.885C193.622 24.354 192.844 19.476 195.376 15.987C197.905 12.499 202.785 11.722 206.272 14.252C209.761 16.782 210.54 21.661 208.007 25.149Z" fill="#FFE5A8"/>
<path d="M207.835 21.213C205.306 24.703 200.428 25.479 196.938 22.949C195.475 21.887 194.497 20.411 194.032 18.799C193.145 21.869 194.202 25.296 196.938 27.28C200.428 29.809 205.306 29.034 207.835 25.544C209.305 23.52 209.652 21.027 209.008 18.797C208.764 19.642 208.382 20.461 207.835 21.213Z" fill="#E7C883"/>
<path d="M207.835 48.234C205.306 51.723 200.428 52.499 196.938 49.97C195.475 48.908 194.497 47.432 194.032 45.82C193.145 48.89 194.202 52.317 196.938 54.301C200.428 56.831 205.306 56.054 207.835 52.565C209.305 50.54 209.652 48.048 209.008 45.817C208.764 46.662 208.382 47.481 207.835 48.234Z" fill="#E7C883"/>
<path d="M166.778 47.06C174.944 49.068 182.659 44.113 186.267 36.999C186.47 36.604 184.395 36.52 184.139 37.023C181.207 42.802 175.254 48.146 168.279 46.431C167.838 46.322 165.745 46.806 166.778 47.06Z" fill="#859C7A"/>
<path d="M162.992 37.565C162.992 37.565 149.103 35.4601 145.949 21.1001C142.798 6.74305 168.271 18.492 162.992 37.565Z" fill="#D2E1C7"/>
<path d="M163.453 38.487C163.547 36.734 163.037 34.99 162.372 33.373C161.698 31.746 160.798 30.225 159.793 28.791C157.751 25.94 155.27 23.433 152.477 21.359C154.796 23.95 157.097 26.505 159.072 29.303C160.067 30.693 160.969 32.145 161.748 33.662C162.494 35.187 163.203 36.767 163.453 38.487Z" fill="#859C7A"/>
<path d="M164.256 36.527C164.256 36.527 166.934 46.24 158.451 52.497C149.966 58.753 150.224 38.639 164.256 36.527Z" fill="#546749"/>
<path d="M164.727 35.9561C163.551 36.4061 162.558 37.25 161.693 38.157C160.825 39.073 160.091 40.108 159.446 41.185C158.175 43.355 157.258 45.713 156.716 48.147C157.736 45.872 158.737 43.6181 159.992 41.5081C160.611 40.4501 161.299 39.4351 162.065 38.4821C162.845 37.5481 163.673 36.6221 164.727 35.9561Z" fill="#859C7A"/>
<path d="M193.109 41.275C190.578 44.763 185.702 45.541 182.212 43.01C178.724 40.48 177.947 35.601 180.477 32.112C183.008 28.624 187.884 27.847 191.373 30.378C194.863 32.908 195.64 37.787 193.109 41.275Z" fill="white"/>
<path d="M189.272 8.02702C186.741 11.513 181.863 12.292 178.374 9.76102C176.279 8.24202 175.171 5.87602 175.161 3.47302C172.787 6.94802 173.588 11.7 177.015 14.187C180.505 16.717 185.382 15.939 187.914 12.453C188.924 11.058 189.397 9.44202 189.392 7.84202C189.349 7.90402 189.315 7.96702 189.272 8.02702Z" fill="#D2E1C7"/>
<path d="M194.47 36.593C191.939 40.08 187.061 40.858 183.572 38.328C181.478 36.808 180.37 34.443 180.36 32.04C177.985 35.514 178.785 40.267 182.212 42.753C185.703 45.283 190.579 44.505 193.11 41.019C194.122 39.624 194.595 38.0091 194.589 36.409C194.548 36.47 194.513 36.533 194.47 36.593Z" fill="#D2E1C7"/>
<path d="M172.212 108.456C172.212 108.456 169.562 99.892 160.201 99.268C150.839 98.646 160.677 113.603 172.212 108.456Z" fill="#546749"/>
<path d="M172.753 108.101C171.657 108.163 170.612 107.929 169.596 107.646C168.583 107.344 167.596 106.956 166.638 106.498C164.707 105.601 162.895 104.457 160.986 103.362C162.453 105.003 164.254 106.338 166.262 107.299C167.272 107.763 168.335 108.139 169.445 108.318C170.54 108.491 171.717 108.529 172.753 108.101Z" fill="#D2E1C7"/>
<path d="M174.412 108.62C174.412 108.62 175.128 103.341 180.557 102.057C185.985 100.777 181.679 110.511 174.412 108.62Z" fill="#546749"/>
<path d="M174.059 108.466C174.707 108.69 175.428 108.588 176.073 108.398C176.73 108.206 177.332 107.881 177.889 107.507C178.986 106.732 179.903 105.736 180.496 104.535C179.377 105.269 178.417 106.079 177.386 106.779C176.879 107.138 176.355 107.463 175.813 107.76C175.265 108.045 174.708 108.319 174.059 108.466Z" fill="#D2E1C7"/>
<path d="M163.093 92.235L177.542 89.149C178.602 94.111 176.939 98.779 173.772 100.371C174.517 104.9 174.564 110.767 169.944 111.529C169.461 111.608 168.225 110.845 169.061 110.71C172.95 110.069 173.029 105.011 172.416 100.842C168.447 101.636 164.284 97.803 163.093 92.235Z" fill="#D2E1C7"/>
<path d="M183.939 70.285C182.57 65.848 179.202 62.951 176.414 63.81C174.614 64.365 173.511 66.356 173.312 68.883C171.722 66.906 169.693 65.885 167.893 66.44C165.265 67.251 164.122 71.114 165.14 75.268C163.64 71.263 160.517 68.717 157.891 69.527C155.857 70.153 154.708 72.617 154.76 75.626C153.114 73.113 150.774 71.725 148.738 72.351C145.95 73.212 144.802 77.505 146.167 81.941C146.617 83.394 147.293 84.659 148.081 85.703C152.39 92.713 161.577 96.089 170.477 93.342C180.866 90.137 186.906 79.81 183.964 70.278L183.939 70.285Z" fill="#A43448"/>
<path d="M175.131 85.819C166.231 88.566 157.044 85.19 152.734 78.181C151.947 77.137 151.27 75.871 150.821 74.418C150.658 73.893 150.536 73.369 150.442 72.853C149.715 72.631 148.984 72.594 148.287 72.808C145.5 73.67 144.352 77.963 145.716 82.398C146.167 83.851 146.842 85.116 147.631 86.16C151.941 93.17 161.127 96.546 170.025 93.799C176.651 91.755 181.504 86.812 183.39 81.028C181.146 83.151 178.346 84.827 175.131 85.819Z" fill="#881C37"/>
<path d="M180.497 70.541C180.823 72.265 180.926 74.003 180.892 75.72C180.838 77.436 180.608 79.141 180.114 80.768C179.639 82.399 178.896 83.946 177.926 85.351C176.95 86.753 175.756 88.017 174.412 89.148C175.95 88.302 177.36 87.167 178.479 85.766C179.613 84.377 180.445 82.741 180.961 81.02C181.466 79.294 181.667 77.491 181.579 75.713C181.498 73.938 181.154 72.174 180.497 70.541Z" fill="#FBD6D7"/>
<path d="M89.7738 153.547L98.4937 151.684C99.1317 154.678 98.1337 157.495 96.2177 158.455C96.6707 161.187 96.6957 164.728 93.9088 165.188C93.6178 165.236 92.8698 164.778 93.3778 164.694C95.7217 164.306 95.7707 161.255 95.4007 158.74C93.0058 159.219 90.4958 156.908 89.7738 153.547Z" fill="#546749"/>
<path d="M103.24 141.186C102.414 138.508 100.378 136.759 98.6987 137.278C97.6127 137.614 96.9477 138.814 96.8267 140.34C95.8668 139.147 94.6418 138.529 93.5568 138.864C91.9698 139.354 91.2839 141.685 91.8958 144.193C90.9909 141.775 89.1059 140.238 87.5229 140.728C86.2939 141.104 85.5989 142.593 85.6299 144.408C84.638 142.892 83.227 142.053 81.999 142.433C80.3131 142.951 79.6231 145.543 80.447 148.218C80.719 149.096 81.128 149.859 81.602 150.489C84.201 154.719 89.7459 156.756 95.1148 155.097C101.386 153.163 105.031 146.93 103.256 141.181L103.24 141.186Z" fill="#F5A9A9"/>
<path d="M103.418 141.129L103.403 141.133C102.783 139.12 101.477 137.634 100.153 137.238C100.514 137.794 100.82 138.437 101.041 139.148L101.056 139.144C102.831 144.893 99.1857 151.126 92.9158 153.06C89.3129 154.171 85.6409 153.617 82.824 151.859C85.6919 155.099 90.5508 156.505 95.2767 155.045C101.547 153.112 105.194 146.879 103.418 141.129Z" fill="#E28C8C"/>
<path d="M82.972 148.406C82.972 148.406 85.6699 155.856 92.5238 154.385" stroke="#F8CDBA" stroke-width="0.8857" stroke-miterlimit="10"/>
<path d="M51.1495 270.507C47.2886 264.292 53.1215 261.62 53.1215 261.62C53.1215 261.62 53.8775 269.387 63.1693 269.79C72.4611 270.191 79.272 280.61 73.3661 289.504L71.2002 292.054C64.6793 300.504 52.6245 297.408 49.2546 288.742C45.8827 280.072 38.2868 281.857 38.2868 281.857C38.2868 281.857 40.6157 275.734 45.4706 277.178L40.9457 266.741L51.1495 270.507Z" fill="#FFE5A8"/>
<path d="M68.1633 270.896C71.4992 274.836 72.4902 280.67 68.9752 285.962L66.8093 288.512C62.7784 293.738 56.6325 294.542 51.7286 292.352C56.5665 298.09 66.0243 299.194 71.5322 292.054L73.6972 289.504C78.5511 282.193 74.8081 273.856 68.1633 270.896Z" fill="#E7C883"/>
<path d="M71.1832 292.565C78.5131 296.298 78.8681 305.813 77.0131 312.711C76.8741 313.226 78.962 312.92 79.114 312.356C81.006 305.316 80.646 295.624 73.1781 291.821C72.6072 291.532 70.8692 292.406 71.1832 292.565Z" fill="#859C7A"/>
<path d="M81.219 305.921C81.219 305.921 93.0178 304.133 95.6938 291.935C98.3717 279.744 76.7361 289.719 81.219 305.921Z" fill="#546749"/>
<path d="M81.582 306.703C81.645 305.249 82.149 303.894 82.7 302.597C83.282 301.305 83.988 300.071 84.7839 298.893C86.3599 296.519 88.2559 294.366 90.1538 292.158C87.7819 293.849 85.6979 295.961 84.0479 298.402C83.2389 299.631 82.533 300.942 82.06 302.347C81.591 303.738 81.297 305.256 81.582 306.703Z" fill="#859C7A"/>
<path d="M49.5176 282.422C49.6816 284.151 50.0806 285.861 50.6806 287.504C51.2786 289.148 52.0865 290.737 53.1895 292.142C54.2925 293.53 55.7555 294.736 57.5024 295.266C59.2434 295.818 61.1154 295.593 62.7073 294.933C61.0074 295.263 59.2644 295.215 57.7294 294.613C56.1964 294.006 54.9095 292.901 53.8835 291.592C52.8385 290.289 52.0275 288.789 51.3186 287.244C50.6276 285.688 50.0166 284.082 49.5176 282.422Z" fill="white"/>
<path d="M217.076 312.308C217.076 312.308 209.19 312.588 205.958 304.987C202.728 297.385 218.01 301.227 217.076 312.308Z" fill="#546749"/>
<path d="M216.937 312.86C217.015 311.872 216.65 310.893 216.195 310.025C215.73 309.147 215.108 308.368 214.428 307.66C213.043 306.267 211.401 305.161 209.589 304.453C211.029 305.758 212.495 306.937 213.795 308.279C214.453 308.939 215.061 309.643 215.61 310.389C216.145 311.145 216.649 311.935 216.937 312.86Z" fill="#A6CBBB"/>
<path d="M228.453 312.308C228.453 312.308 236.342 312.588 239.573 304.987C242.801 297.385 227.518 301.227 228.453 312.308Z" fill="#546749"/>
<path d="M228.593 312.86C228.88 311.935 229.386 311.145 229.92 310.389C230.47 309.643 231.077 308.94 231.735 308.279C233.035 306.937 234.501 305.757 235.942 304.453C234.13 305.161 232.488 306.267 231.103 307.66C230.423 308.368 229.802 309.147 229.337 310.025C228.88 310.893 228.515 311.871 228.593 312.86Z" fill="#A6CBBB"/>
<path d="M237.459 287.682C228.465 291.298 227.301 304.74 227.613 312.704C227.633 313.24 226.554 313.068 226.536 312.612C226.213 304.225 227.504 290.745 236.839 286.992C237.265 286.822 238.078 287.431 237.459 287.682Z" fill="#859C7A"/>
<path d="M210.138 287.075C219.521 290.849 220.849 304.406 220.522 312.802C220.505 313.208 219.441 312.977 219.459 312.518C219.77 304.547 218.639 291.199 209.696 287.6C209.012 287.324 209.628 286.869 210.138 287.075Z" fill="#859C7A"/>
<path d="M224.261 268.757V312.74C224.261 313.856 222.107 313.532 222.107 312.577V268.593C222.107 267.479 224.261 267.802 224.261 268.757Z" fill="#859C7A"/>
<path d="M214.855 263.087C214.855 267.898 218.756 271.8 223.568 271.8C228.382 271.8 232.282 267.899 232.282 263.087C232.282 258.274 228.383 254.373 223.568 254.373C218.756 254.374 214.855 258.275 214.855 263.087Z" fill="#FFE5A8"/>
<path d="M223.211 269.327C227.353 269.327 230.813 266.434 231.699 262.559C231.841 263.185 231.923 263.834 231.923 264.504C231.923 269.317 228.024 273.218 223.211 273.218C218.397 273.218 214.497 269.317 214.497 264.504C214.497 263.834 214.579 263.185 214.724 262.559C215.608 266.433 219.067 269.327 223.211 269.327Z" fill="#E7C883"/>
<path d="M230.614 286.626C230.614 289.756 233.152 292.295 236.283 292.295C239.412 292.295 241.95 289.756 241.95 286.626C241.95 283.496 239.412 280.957 236.283 280.957C233.152 280.957 230.614 283.496 230.614 286.626Z" fill="white"/>
<path d="M232.732 283.646C233.098 286.423 235.468 288.569 238.344 288.569C239.365 288.569 240.321 288.294 241.149 287.82C241.181 288.065 241.204 288.314 241.204 288.569C241.204 291.698 238.666 294.237 235.536 294.237C232.406 294.237 229.868 291.698 229.868 288.569C229.868 286.458 231.022 284.624 232.732 283.646Z" fill="#D2E1C7"/>
<path d="M205.714 288.091C205.714 291.222 208.252 293.76 211.383 293.76C214.514 293.76 217.05 291.222 217.05 288.091C217.05 284.96 214.514 282.422 211.383 282.422C208.253 282.422 205.714 284.96 205.714 288.091Z" fill="white"/>
<path d="M236.255 287.075C226.87 290.849 225.544 304.406 225.871 312.802C225.888 313.208 226.95 312.977 226.935 312.518C226.624 304.547 227.755 291.199 236.699 287.6C237.382 287.324 236.767 286.869 236.255 287.075Z" fill="#859C7A"/>
<path d="M222.132 268.757V312.74C222.132 313.856 224.284 313.532 224.284 312.577V268.593C224.285 267.479 222.132 267.802 222.132 268.757Z" fill="#859C7A"/>
<path d="M214.205 283.646C213.839 286.423 211.47 288.569 208.593 288.569C207.572 288.569 206.616 288.294 205.789 287.82C205.756 288.065 205.733 288.314 205.733 288.569C205.733 291.698 208.271 294.237 211.4 294.237C214.53 294.237 217.067 291.698 217.067 288.569C217.067 286.458 215.915 284.624 214.205 283.646Z" fill="#D2E1C7"/>
<path d="M208.937 287.682C217.928 291.298 219.091 304.74 218.781 312.704C218.761 313.24 219.839 313.068 219.856 312.612C220.182 304.225 218.89 290.745 209.555 286.992C209.13 286.822 208.317 287.431 208.937 287.682Z" fill="#859C7A"/>
<path d="M201.576 311.834C201.576 314.533 180.265 316.721 153.978 316.721C127.687 316.721 106.376 314.533 106.376 311.834C106.376 309.133 127.686 306.946 153.978 306.946C180.265 306.947 201.576 309.133 201.576 311.834Z" fill="#8AAF9E"/>
<path d="M96.6117 269.821C100.14 267.328 104.113 262.219 107.821 252.263C109.478 247.825 110.943 243.077 112.428 238.252C116.456 218.621 114.802 202.52 103.942 179.319C87.6569 144.532 40.1668 163.547 72.5122 200.709C99.5537 231.772 97.8857 261.049 96.6117 269.821Z" fill="#A43448"/>
<path d="M101.542 264.402C102.817 255.63 104.484 226.353 77.4421 195.291C66.1643 182.332 64.5973 171.585 68.0262 164.552C59.8734 170.472 57.8024 183.745 72.7201 200.887C99.7626 231.95 98.0937 261.225 96.8217 269.997C98.6867 268.679 100.68 266.616 102.689 263.503C102.302 263.832 101.919 264.135 101.542 264.402Z" fill="#881C37"/>
<path d="M89.3919 273.714C89.3919 273.714 101.68 281.312 110.259 254.089C118.861 226.866 119.93 188.718 162.737 188.977C185.203 189.09 195.52 210.051 198.998 227.624C205.654 261.435 158.693 332.848 89.3919 273.714Z" fill="#EBA681"/>
<path d="M198.999 227.114C196.697 215.482 191.394 202.372 181.559 194.8C182.782 198.277 183.714 201.802 184.386 205.2C190.104 234.241 156.266 291.019 102.692 268.996C95.8627 277.201 89.3928 273.205 89.3928 273.205C158.693 332.337 205.654 260.924 198.999 227.114Z" fill="#DA8C6A"/>
<path d="M119.66 279.254C119.66 279.254 124.821 283.037 129.599 271.254C134.337 259.472 135.578 245.325 154.568 246.918C164.544 247.748 168.2 257.055 169.892 263.465C173.111 275.999 148.357 307.895 119.66 279.254Z" fill="#A43448"/>
<path d="M170.145 263.773C168.514 257.597 165.041 248.754 155.868 247.373C157.634 250.272 158.716 253.52 159.436 256.245C162.191 266.977 144.434 291.904 121.254 280.862C149.377 307.211 173.313 276.11 170.145 263.773Z" fill="#881C37"/>
<path d="M99.0346 268.816C81.802 236.086 70.5412 220.876 35.9088 209.223C-0.496488 196.974 -19.5461 244.452 29.668 246.727C63.0213 248.264 82.492 262.641 91.5848 271.751C93.5808 271.825 96.2167 271.244 99.0346 268.816Z" fill="#881C37"/>
<path d="M102.444 264.963C97.6257 227.025 92.6798 208.635 63.8013 185.258C33.9469 161.088 -0.452505 198.955 44.8847 218.234C83.5369 234.67 94.5227 262.483 96.9227 270.334C98.6807 269.318 100.561 267.633 102.444 264.963Z" fill="#F48256"/>
<path d="M100.247 263.715C97.8467 255.863 86.8599 228.051 48.2066 211.613C29.806 203.788 24.5411 192.899 26.776 184.342C18.5652 193.001 20.2001 208.431 44.2207 218.645C82.873 235.083 93.8608 262.894 96.2607 270.746C98.0187 269.729 99.8987 268.044 101.782 265.376C101.675 264.54 101.569 263.726 101.463 262.908C101.052 263.212 100.646 263.484 100.247 263.715Z" fill="#D16942"/>
<path d="M79.917 175.063C82.261 178.442 84.3369 181.995 86.2869 185.606C88.2519 189.211 90.0678 192.894 91.7198 196.649C95.0277 204.153 97.7807 211.909 99.6986 219.878C101.686 227.826 102.833 235.985 103.041 244.178C103.153 248.274 103.005 252.379 102.594 256.46C102.215 260.545 101.553 264.607 100.626 268.613C101.692 264.642 102.499 260.595 103.025 256.508C103.527 252.418 103.752 248.292 103.722 244.166C103.655 235.912 102.493 227.684 100.559 219.667C98.5557 211.662 95.7947 203.852 92.3378 196.37C88.8669 188.899 84.8079 181.681 79.917 175.063Z" fill="#EBA681"/>
<path d="M42.0307 192.836C45.6167 195.09 49.0666 197.548 52.4425 200.096C55.8305 202.627 59.1344 205.27 62.3364 208.03C68.7382 213.543 74.8131 219.457 80.189 225.964C85.6049 232.425 90.3398 239.498 93.7918 247.196C95.5177 251.039 96.8867 255.049 97.7847 259.171C98.7127 263.285 99.1567 267.521 99.0337 271.755C99.3017 267.527 99.0027 263.26 98.2097 259.083C97.3917 254.91 96.0817 250.837 94.4157 246.923C91.0588 239.089 86.2699 231.948 80.869 225.4C75.3971 218.893 69.2972 212.937 62.7733 207.512C56.2435 202.097 49.3406 197.124 42.0307 192.836Z" fill="#EBA681"/>
<path d="M23.951 224.601C27.683 225.203 31.3589 226.097 34.9909 227.119C38.6268 228.125 42.2187 229.287 45.7457 230.616C52.7995 233.266 59.6484 236.489 66.0213 240.498C72.4282 244.441 78.354 249.177 83.5089 254.661C86.0919 257.397 88.4648 260.334 90.5948 263.442C92.7498 266.534 94.6477 269.811 96.2787 273.221C94.7797 269.751 93.0048 266.393 90.9568 263.201C88.8878 260.023 86.5559 257.016 84.0109 254.198C78.909 248.564 72.9141 243.781 66.4883 239.745C60.0214 235.766 53.1235 232.508 45.9776 229.977C38.8318 227.463 31.4559 225.556 23.951 224.601Z" fill="#EBA681"/>
<path d="M178.211 212.355C178.211 221.064 171.15 228.126 162.443 228.126C153.735 228.126 146.673 221.064 146.673 212.355C146.673 203.646 153.736 196.586 162.443 196.586C171.15 196.586 178.211 203.646 178.211 212.355Z" fill="white"/>
<path d="M175.116 210.267C175.116 214.961 171.311 218.768 166.619 218.768C161.924 218.768 158.118 214.961 158.118 210.267C158.118 205.573 161.924 201.77 166.619 201.77C171.311 201.77 175.116 205.573 175.116 210.267Z" fill="#546749"/>
<path d="M173.03 208.179C173.03 210.569 171.094 212.505 168.705 212.505C166.317 212.505 164.381 210.569 164.381 208.179C164.381 205.792 166.317 203.855 168.705 203.855C171.093 203.855 173.03 205.792 173.03 208.179Z" fill="white"/>
<path d="M152.724 309.789C147.492 306.155 144.884 301.778 143.652 297.761C141.155 297.892 138.591 297.845 135.963 297.608C142.174 310.752 163.512 317.276 152.724 309.789Z" fill="#FFE5A8"/>
<path d="M167.639 309.509C161.277 305.091 158.788 299.569 157.946 294.933C155.608 295.756 153.187 296.417 150.687 296.901C156.63 310.332 178.544 317.081 167.639 309.509Z" fill="#E7C883"/>
<path d="M144.232 131.203C137.217 119.923 147.808 115.073 147.808 115.073C147.808 115.073 149.184 129.175 166.049 129.906C182.914 130.634 195.281 149.549 184.563 165.693L180.628 170.321C168.791 185.665 146.907 180.044 140.787 164.307C134.668 148.572 120.875 151.81 120.875 151.81C120.875 151.81 125.107 140.695 133.919 143.316L125.703 124.375L144.232 131.203Z" fill="#F0657C"/>
<path d="M181.244 171.009C194.601 177.81 195.239 195.141 191.862 207.704C191.703 208.304 194.135 207.949 194.312 207.288C197.736 194.552 197.079 177.018 183.571 170.142C182.907 169.803 180.879 170.823 181.244 171.009Z" fill="#D2E1C7"/>
<path d="M198.019 199.49C198.019 199.49 214.221 197.035 217.898 180.284C221.576 163.537 191.861 177.242 198.019 199.49Z" fill="#546749"/>
<path d="M197.483 200.565C197.775 198.559 198.601 196.716 199.472 194.937C200.38 193.167 201.434 191.473 202.594 189.852C204.897 186.59 207.581 183.609 210.286 180.587C207.029 183.005 204.134 185.93 201.752 189.255C200.579 190.928 199.528 192.702 198.742 194.6C197.968 196.486 197.374 198.521 197.483 200.565Z" fill="#D2E1C7"/>
<path d="M191.271 217.48L199.335 203.673L182.237 205.146C182.237 205.146 181.359 218.25 191.271 217.48Z" fill="#E7C883"/>
<path d="M193.609 208.517C190.161 213.371 188.212 220.425 192.708 225.229C193.381 225.949 191.836 226.096 191.394 225.624C186.589 220.49 188.408 213.103 192.143 207.844C192.522 207.308 194.053 207.892 193.609 208.517Z" fill="#D2E1C7"/>
<path d="M184.281 211.68C184.281 211.68 196.504 207.352 199.336 203.673" stroke="#DA8C6A" stroke-width="0.8248" stroke-miterlimit="10"/>
<path d="M128.7 131.066C128.734 131.075 128.766 131.082 128.801 131.091L125.979 124.586L125.874 124.546L128.7 131.066Z" fill="#BF3D56"/>
<path d="M183.336 138.608C183.811 143.428 182.694 148.574 179.445 153.467L175.509 158.096C163.671 173.44 141.787 167.819 135.667 152.082C134.077 147.994 131.969 145.195 129.72 143.278C123.875 144.559 121.044 151.982 121.044 151.982C121.044 151.982 134.838 148.746 140.956 164.48C147.076 180.215 168.96 185.837 180.798 170.493L184.732 165.865C191.084 156.298 189.328 145.761 183.336 138.608Z" fill="#BF3D56"/>
<path d="M168.347 134.001C170.027 134.44 171.627 135.109 173.084 136.01C174.557 136.882 175.907 137.945 177.117 139.144C179.53 141.544 181.478 144.415 182.736 147.562C184.008 150.694 184.578 154.14 184.083 157.488C183.605 160.84 181.871 163.97 179.367 166.372C180.758 165.33 181.958 164.021 182.92 162.542C183.856 161.047 184.513 159.368 184.866 157.626C185.579 154.121 185.005 150.455 183.694 147.177C182.355 143.897 180.293 140.916 177.658 138.567C176.34 137.397 174.89 136.372 173.327 135.569C171.753 134.796 170.075 134.211 168.347 134.001Z" fill="#F8CDBA"/>
</svg>
